<svg width="272" height="152" viewBox="0 0 272 152" fill="none" xmlns="http://www.w3.org/2000/svg">
<path opacity="0.1" d="M272.001 98.9831C272.016 106.852 269.867 114.574 265.791 121.304C265.791 129.536 261.953 136.997 255.728 142.434C254.17 143.793 252.493 145.009 250.716 146.067C250.645 146.112 250.571 146.155 250.498 146.198C250.365 146.277 250.231 146.355 250.096 146.436L249.97 146.51C249.402 146.831 248.821 147.14 248.229 147.43C242.774 150.112 236.771 151.496 230.692 151.472H51.6351C50.2085 151.472 48.7946 151.415 47.3934 151.3C42.4138 150.908 37.5207 149.775 32.8756 147.938C31.9689 147.58 31.0797 147.195 30.2079 146.783C29.7926 146.588 29.3813 146.387 28.9739 146.181C28.7195 146.053 28.4651 145.92 28.213 145.787C26.6838 144.974 25.2025 144.073 23.7764 143.09C22.473 142.199 21.219 141.237 20.0197 140.209C11.9287 133.266 6.92375 123.658 6.92375 113.056C2.38856 106.073 -0.0170704 97.9207 9.11844e-05 89.5938C9.11844e-05 66.022 18.8404 46.913 42.0841 46.913C42.7974 46.913 43.5107 46.9344 44.224 46.9725C44.3262 46.9725 44.4261 46.9725 44.5283 46.9867C48.4467 40.308 53.6846 34.1713 59.9829 28.7693C77.1589 14.0518 102.262 4.77429 130.225 4.77429C153.721 4.77429 175.198 11.3247 191.649 22.1476C197.883 18.6237 204.924 16.7764 212.085 16.7861C235.324 16.7861 254.169 35.8951 254.169 59.4669C254.165 60.9584 254.086 62.4487 253.931 63.9321C259.533 67.8975 264.099 73.152 267.244 79.2523C270.388 85.3527 272.02 92.1199 272.001 98.9831Z" fill="#F4BE8A"/>
<path opacity="0.1" d="M216.528 65.1399V62.5887C218.524 61.7786 220.176 60.2999 221.201 58.4059C222.226 56.512 222.561 54.3205 222.148 52.2068C221.736 50.093 220.601 48.1885 218.938 46.8193C217.276 45.4502 215.189 44.7015 213.036 44.7015C210.882 44.7015 208.795 45.4502 207.133 46.8193C205.471 48.1885 204.336 50.093 203.923 52.2068C203.51 54.3205 203.845 56.512 204.871 58.4059C205.896 60.2999 207.548 61.7786 209.543 62.5887V65.1399C207.217 65.7866 205.115 67.0646 203.471 68.8324C201.729 66.2193 199.106 64.3191 196.081 63.478V60.9244C198.076 60.1142 199.728 58.6356 200.753 56.7416C201.778 54.8476 202.113 52.6561 201.701 50.5424C201.288 48.4287 200.153 46.5242 198.491 45.155C196.828 43.7858 194.742 43.0371 192.588 43.0371C190.434 43.0371 188.348 43.7858 186.685 45.155C185.023 46.5242 183.888 48.4287 183.476 50.5424C183.063 52.6561 183.398 54.8476 184.423 56.7416C185.448 58.6356 187.1 60.1142 189.095 60.9244V63.4756C187.027 64.0498 185.132 65.1244 183.577 66.6046C181.842 64.2757 179.382 62.5895 176.584 61.8113V59.2601C178.58 58.4499 180.231 56.9712 181.257 55.0773C182.282 53.1833 182.617 50.9918 182.204 48.8781C181.791 46.7643 180.657 44.8598 178.994 43.4907C177.332 42.1215 175.245 41.3728 173.092 41.3728C170.938 41.3728 168.851 42.1215 167.189 43.4907C165.526 44.8598 164.392 46.7643 163.979 48.8781C163.566 50.9918 163.901 53.1833 164.926 55.0773C165.952 56.9712 167.603 58.4499 169.599 59.2601V61.8113C167.219 62.4746 165.075 63.7985 163.417 65.6297C162.678 63.7342 161.507 62.037 159.998 60.6726C158.489 59.3083 156.682 58.3142 154.722 57.7693V55.2181C156.717 54.4079 158.369 52.9293 159.394 51.0353C160.42 49.1413 160.755 46.9498 160.342 44.8361C159.929 42.7224 158.794 40.8179 157.132 39.4487C155.47 38.0795 153.383 37.3308 151.229 37.3308C149.076 37.3308 146.989 38.0795 145.327 39.4487C143.664 40.8179 142.529 42.7224 142.117 44.8361C141.704 46.9498 142.039 49.1413 143.064 51.0353C144.089 52.9293 145.741 54.4079 147.736 55.2181V57.7693C145.189 58.4787 142.916 59.9439 141.218 61.9717C139.52 63.9994 138.477 66.4944 138.226 69.1272C137.026 68.2942 135.694 67.6697 134.286 67.2798V64.7286C136.282 63.9184 137.933 62.4398 138.959 60.5458C139.984 58.6518 140.319 56.4604 139.906 54.3466C139.493 52.2329 138.359 50.3284 136.696 48.9592C135.034 47.59 132.947 46.8413 130.794 46.8413C128.64 46.8413 126.553 47.59 124.891 48.9592C123.228 50.3284 122.094 52.2329 121.681 54.3466C121.268 56.4604 121.603 58.6518 122.628 60.5458C123.654 62.4398 125.305 63.9184 127.301 64.7286V67.2798C125.525 67.7744 123.873 68.6377 122.453 69.8135C121.033 70.9892 119.877 72.451 119.06 74.1036C117.958 73.3957 116.756 72.8586 115.493 72.5106V69.9594C117.489 69.1492 119.141 67.6706 120.166 65.7766C121.191 63.8826 121.526 61.6911 121.113 59.5774C120.701 57.4637 119.566 55.5592 117.903 54.19C116.241 52.8208 114.154 52.0721 112.001 52.0721C109.847 52.0721 107.76 52.8208 106.098 54.19C104.436 55.5592 103.301 57.4637 102.888 59.5774C102.475 61.6911 102.81 63.8826 103.836 65.7766C104.861 67.6706 106.513 69.1492 108.508 69.9594V72.5106C107.317 72.8393 106.179 73.3373 105.129 73.9895C104.307 72.364 103.154 70.9279 101.746 69.7726C100.337 68.6174 98.703 67.7684 96.9479 67.2798V64.7286C98.9434 63.9184 100.595 62.4398 101.62 60.5458C102.646 58.6518 102.98 56.4604 102.568 54.3466C102.155 52.2329 101.02 50.3284 99.3579 48.9592C97.6955 47.59 95.6089 46.8413 93.4552 46.8413C91.3016 46.8413 89.2149 47.59 87.5525 48.9592C85.8901 50.3284 84.7554 52.2329 84.3427 54.3466C83.9299 56.4604 84.2648 58.6518 85.2901 60.5458C86.3153 62.4398 87.967 63.9184 89.9625 64.7286V67.2798C88.0736 67.8053 86.3267 68.748 84.8506 70.0384C83.3745 71.3289 82.2069 72.9342 81.4339 74.7361C80.1043 73.7154 78.5908 72.9598 76.9759 72.5106V69.9594C78.9713 69.1492 80.6231 67.6706 81.6483 65.7766C82.6735 63.8826 83.0084 61.6911 82.5957 59.5774C82.1829 57.4637 81.0482 55.5592 79.3858 54.19C77.7234 52.8208 75.6368 52.0721 73.4831 52.0721C71.3295 52.0721 69.2428 52.8208 67.5804 54.19C65.918 55.5592 64.7833 57.4637 64.3706 59.5774C63.9578 61.6911 64.2928 63.8826 65.318 65.7766C66.3432 67.6706 67.9949 69.1492 69.9904 69.9594V72.5106C67.2348 73.2743 64.8056 74.9202 63.0746 77.1961C61.3436 79.472 60.4063 82.2526 60.4062 85.112V144.077H86.5458V138.846H98.9095V144.077H125.063V138.846H143.847V129.336H160.015V133.378H179.511V135.042H199.959V136.707H226.113V77.7414C226.113 74.882 225.175 72.1014 223.444 69.8255C221.713 67.5495 219.284 65.9037 216.528 65.1399Z" fill="#F4BE8A"/>
<path d="M116.689 40.1819H138.428C143.745 40.1816 149.01 41.2286 153.922 43.2631C158.834 45.2976 163.298 48.2797 167.058 52.0393C170.817 55.7988 173.8 60.2621 175.835 65.1742C177.869 70.0864 178.917 75.3513 178.917 80.6682V135.525H76.2031V80.6682C76.2031 69.9306 80.4686 59.6328 88.0612 52.0401C95.6539 44.4475 105.952 40.1819 116.689 40.1819Z" fill="#2F2E41"/>
<path opacity="0.2" d="M119.067 42.3884H136.05C141.367 42.3881 146.632 43.435 151.545 45.4695C156.457 47.504 160.92 50.4862 164.68 54.2457C168.44 58.0052 171.422 62.4685 173.457 67.3807C175.492 72.2928 176.539 77.5577 176.539 82.8746V133.316H78.5807V82.8746C78.5807 72.137 82.8463 61.8392 90.4389 54.2465C98.0316 46.6539 108.329 42.3884 119.067 42.3884Z" fill="black"/>
<path d="M248.225 143.274V147.425C242.769 150.108 236.767 151.491 230.687 151.467H51.6351C50.2085 151.467 48.7946 151.41 47.3934 151.296C42.4138 150.904 37.5207 149.77 32.8756 147.934C31.9689 147.576 31.0797 147.19 30.2079 146.778C29.7926 146.583 29.3813 146.383 28.9739 146.177C28.7195 146.048 28.4651 145.915 28.2131 145.782C26.684 144.97 25.2026 144.072 23.7764 143.091V131.816C23.7764 129.993 24.5003 128.246 25.789 126.957C27.0776 125.668 28.8254 124.944 30.6477 124.944H228.283C229.946 124.948 231.551 125.553 232.801 126.649L245.878 138.109C246.615 138.753 247.205 139.547 247.61 140.438C248.014 141.328 248.224 142.295 248.225 143.274Z" fill="#2F2E41"/>
<path d="M114.761 53.6892C109.576 54.0316 104.411 54.5864 99.2661 55.3536C97.8039 55.5723 96.3202 55.8149 94.9864 56.4616C93.9499 57.0044 92.9943 57.6894 92.1475 58.4968C88.3281 61.9186 85.2528 66.0888 83.1125 70.7487C81.7882 73.6376 80.8371 76.6928 79.5889 79.6054C75.1451 90.0075 67.0849 98.5147 62.3938 108.807C61.3786 111.035 60.5226 113.361 60.1826 115.783C59.8308 118.289 60.2302 121.214 62.2892 122.679C63.2403 123.351 64.3958 123.63 65.5276 123.867C79.7747 127.022 94.1875 129.376 108.698 130.917C107.127 129.4 106.601 127.049 106.808 124.875C107.015 122.702 107.868 120.648 108.71 118.634C100.498 116.822 92.306 114.92 84.1349 112.928C82.9152 112.631 81.4505 112.072 81.3008 110.826C81.2247 110.191 81.5385 109.58 81.8476 109.021C85.3325 102.711 89.5114 96.8097 94.3064 91.427C94.3064 98.0986 93.9759 105.633 93.9759 112.307H171.035C170.108 108.499 169.563 104.609 169.409 100.693C169.05 87.9105 173.353 75.2258 172.236 62.4698C172.131 61.2929 171.969 60.0803 171.353 59.0722C170.291 57.3318 168.17 56.6114 166.22 56.017C158.745 53.7439 151.113 51.4448 143.3 51.6231C140.977 51.6778 138.663 51.9488 136.355 52.2223C129.319 53.052 121.83 53.2209 114.761 53.6892Z" fill="#F4BE8A"/>
<path d="M78.6711 130.37L84.2823 148.328C84.3182 148.442 84.3894 148.542 84.4856 148.612C84.5818 148.683 84.698 148.721 84.8172 148.721H108.895L103.189 127.798L79.1609 129.645C79.0772 129.652 78.9961 129.678 78.9236 129.72C78.8511 129.762 78.7891 129.821 78.7421 129.89C78.6951 129.96 78.6643 130.039 78.652 130.122C78.6397 130.205 78.6462 130.29 78.6711 130.37Z" fill="#656478"/>
<path d="M119.833 61.4118C118.786 62.0134 117.567 62.2297 116.378 62.4366L108.705 63.7681C107.212 64.0272 105.641 64.3221 104.49 65.3088C102.136 67.3226 102.645 71.0293 103.358 74.0442L104.785 80.0929C105.859 84.6389 106.958 89.2396 109.162 93.3577C113.011 100.545 120.073 105.721 127.838 108.215C130.613 109.107 133.544 109.687 136.44 109.369C142.113 108.746 146.966 104.701 149.957 99.8391C152.948 94.9768 154.372 89.3371 155.678 83.7782C156.931 78.4571 158.122 73.0598 158.041 67.5913C158.017 65.8889 157.846 64.1104 156.938 62.6672C154.948 59.4978 150.437 59.2601 146.74 59.845C146.165 59.9377 145.568 60.0376 145.014 59.864C143.35 59.3457 143.312 57.0608 142.598 55.4749C141.25 52.4838 137.251 51.9536 133.982 52.2247C130.713 52.4957 125.622 52.8452 122.774 54.6974C120.035 56.4687 123.045 59.5597 119.833 61.4118Z" fill="#FBBEBE"/>
<path opacity="0.1" d="M119.833 61.4118C118.786 62.0134 117.567 62.2297 116.378 62.4366L108.705 63.7681C107.212 64.0272 105.641 64.3221 104.49 65.3088C102.136 67.3226 102.645 71.0293 103.358 74.0442L104.785 80.0929C105.859 84.6389 106.958 89.2396 109.162 93.3577C113.011 100.545 120.073 105.721 127.838 108.215C130.613 109.107 133.544 109.687 136.44 109.369C142.113 108.746 146.966 104.701 149.957 99.8391C152.948 94.9768 154.372 89.3371 155.678 83.7782C156.931 78.4571 158.122 73.0598 158.041 67.5913C158.017 65.8889 157.846 64.1104 156.938 62.6672C154.948 59.4978 150.437 59.2601 146.74 59.845C146.165 59.9377 145.568 60.0376 145.014 59.864C143.35 59.3457 143.312 57.0608 142.598 55.4749C141.25 52.4838 137.251 51.9536 133.982 52.2247C130.713 52.4957 125.622 52.8452 122.774 54.6974C120.035 56.4687 123.045 59.5597 119.833 61.4118Z" fill="black"/>
<path d="M113.482 68.2261C114.642 70.6608 115.512 73.2429 116.915 75.5468C118.03 77.3776 119.459 78.992 120.881 80.5969C124.564 84.7625 128.295 88.9614 132.853 92.1332C134.74 82.4364 139.3 73.4601 146.017 66.217C147.981 64.1081 150.44 62.03 153.322 62.1085C155.11 62.1584 156.76 63.0453 158.248 64.032C159.912 65.1328 161.486 66.4096 162.682 67.9955C164.573 70.5205 165.388 73.7184 165.535 76.8688C165.683 80.0192 165.193 83.1624 164.708 86.2771L162.212 102.376C162.066 103.308 161.864 104.338 161.104 104.896C160.671 105.17 160.184 105.345 159.677 105.41C150.602 107.176 141.248 106.03 132.001 105.94C121.778 105.843 111.271 107.008 101.587 103.755C101.08 103.584 100.555 103.387 100.212 102.98C99.9876 102.673 99.8259 102.325 99.7369 101.955C97.4806 94.6511 99.2899 86.8025 100.629 79.2773C101.688 73.3138 102.443 67.3001 102.89 61.2597C102.93 60.7152 108.912 61.9183 109.58 62.3034C111.399 63.3805 112.607 66.3906 113.482 68.2261Z" fill="#F4BE8A"/>
<g opacity="0.2">
<path opacity="0.2" d="M39.6757 127.629C39.6757 127.738 39.6638 127.845 39.6519 127.95C38.7452 127.592 37.856 127.206 36.9842 126.794C36.5185 126.733 36.0853 126.522 35.7502 126.193C35.4958 126.064 35.2414 125.931 34.9893 125.798C35.0464 125.678 35.1107 125.563 35.1819 125.451C35.6717 124.676 36.4159 124.191 37.2362 124.217C38.0565 124.243 38.7674 124.773 39.2073 125.575C39.5437 126.205 39.7054 126.915 39.6757 127.629Z" fill="#3F3D56"/>
<path opacity="0.2" d="M39.8041 123.558C39.7879 124.271 39.5819 124.967 39.2073 125.575C38.7175 126.347 37.9733 126.832 37.153 126.806L36.9842 126.794C36.5185 126.733 36.0853 126.522 35.7502 126.193C35.523 125.977 35.3312 125.727 35.182 125.451C34.8538 124.818 34.6934 124.111 34.7159 123.399C34.7383 122.686 34.943 121.991 35.3104 121.38C35.8001 120.605 36.5443 120.12 37.3646 120.146C38.1849 120.173 38.8958 120.703 39.3357 121.504C39.6721 122.135 39.8338 122.844 39.8041 123.558Z" fill="#3F3D56"/>
<path opacity="0.2" d="M39.9323 119.494C39.9904 117.655 38.8991 116.129 37.4947 116.084C36.0904 116.04 34.9048 117.494 34.8467 119.333C34.7886 121.172 35.8799 122.699 37.2843 122.743C38.6886 122.787 39.8742 121.333 39.9323 119.494Z" fill="#3F3D56"/>
<path opacity="0.2" d="M40.062 115.423C40.1201 113.585 39.0288 112.058 37.6245 112.014C36.2201 111.969 35.0346 113.424 34.9765 115.263C34.9184 117.101 36.0097 118.628 37.414 118.672C38.8184 118.717 40.0039 117.262 40.062 115.423Z" fill="#3F3D56"/>
<path opacity="0.2" d="M40.1894 111.353C40.2475 109.514 39.1561 107.987 37.7518 107.943C36.3474 107.899 35.1619 109.353 35.1038 111.192C35.0457 113.031 36.137 114.557 37.5413 114.602C38.9457 114.646 40.1313 113.192 40.1894 111.353Z" fill="#3F3D56"/>
<path opacity="0.2" d="M29.0082 83.1101C28.6734 82.6567 28.3714 82.18 28.1047 81.6835L34.8239 80.7966L27.5816 80.6254C26.9362 79.0945 26.6098 77.4479 26.6225 75.7865C26.6351 74.1251 26.9866 72.4837 27.6553 70.9627L37.1944 76.2981L28.4566 69.4411C29.338 68.0154 30.504 66.7868 31.8816 65.832C33.2592 64.8772 34.8189 64.2167 36.4633 63.8917C38.1076 63.5668 39.8013 63.5844 41.4386 63.9434C43.0758 64.3024 44.6215 64.9952 45.979 65.9784C47.3365 66.9616 48.4766 68.2142 49.3283 69.6578C50.18 71.1015 50.7248 72.7052 50.9288 74.3689C51.1328 76.0326 50.9916 77.7205 50.514 79.3272C50.0364 80.9338 49.2326 82.4248 48.1529 83.7068C48.6731 84.4123 49.1156 85.172 49.4724 85.9727L40.6586 90.2144L50.0098 87.4017C50.5989 89.3441 50.6944 91.4027 50.2875 93.3913C49.8807 95.3799 48.9844 97.2356 47.6797 98.7905C49.0378 100.633 49.8499 102.82 50.0231 105.102C50.1963 107.385 49.7236 109.67 48.6591 111.696C47.5946 113.722 45.9813 115.407 44.0038 116.56C42.0262 117.712 39.7643 118.284 37.4766 118.211C35.189 118.138 32.9682 117.423 31.0681 116.147C29.168 114.871 27.6655 113.086 26.7324 110.996C25.7993 108.906 25.4732 106.596 25.7916 104.329C26.11 102.063 27.0599 99.9314 28.5327 98.1795C26.9107 95.9781 26.0757 93.2955 26.1619 90.5624C26.2482 87.8294 27.2506 85.2047 29.0082 83.1101Z" fill="#F4BE8A"/>
<path opacity="0.1" d="M50.5248 91.3295C50.441 94.0647 49.4356 96.6913 47.6716 98.7834C49.0316 100.625 49.8456 102.812 50.0205 105.095C50.1954 107.377 49.7241 109.663 48.6606 111.69C47.5971 113.718 45.9844 115.405 44.0069 116.558C42.0295 117.711 39.7672 118.285 37.4791 118.213C35.191 118.141 32.9694 117.426 31.0686 116.15C29.1678 114.874 27.6646 113.089 26.731 110.998C25.7974 108.908 25.4712 106.597 25.7897 104.33C26.1081 102.063 27.0584 99.9317 28.5317 98.1795C26.9553 96.0539 50.5676 89.9624 50.5248 91.3295Z" fill="black"/>
</g>
<path opacity="0.1" d="M16.1727 38.7102C19.013 38.7102 21.3155 36.4077 21.3155 33.5674C21.3155 30.7271 19.013 28.4246 16.1727 28.4246C13.3324 28.4246 11.0299 30.7271 11.0299 33.5674C11.0299 36.4077 13.3324 38.7102 16.1727 38.7102Z" fill="#F4BE8A"/>
<path opacity="0.1" d="M37.607 10.2856C40.4473 10.2856 42.7499 7.98311 42.7499 5.14281C42.7499 2.30252 40.4473 0 37.607 0C34.7668 0 32.4642 2.30252 32.4642 5.14281C32.4642 7.98311 34.7668 10.2856 37.607 10.2856Z" fill="#F4BE8A"/>
<path opacity="0.1" d="M35.8643 33.2892C40.6244 33.2892 44.4832 29.4304 44.4832 24.6703C44.4832 19.9102 40.6244 16.0514 35.8643 16.0514C31.1042 16.0514 27.2454 19.9102 27.2454 24.6703C27.2454 29.4304 31.1042 33.2892 35.8643 33.2892Z" fill="#F4BE8A"/>
<path d="M129.105 64.0771C140.136 64.0771 149.077 55.1353 149.077 44.105C149.077 33.0747 140.136 24.1329 129.105 24.1329C118.075 24.1329 109.133 33.0747 109.133 44.105C109.133 55.1353 118.075 64.0771 129.105 64.0771Z" fill="#FBBEBE"/>
<path d="M120.993 4.91459C115.665 5.58984 109.913 6.48145 106.147 10.3094C104.04 12.4493 102.806 15.3025 101.791 18.1271C100.217 22.5257 99.045 27.1621 99.4135 31.8294C99.7416 36.0045 101.287 40.2747 100.036 44.2739C99.4611 46.1142 98.3317 47.7214 97.4543 49.4357C95.828 52.6194 95.0625 56.1882 94.7819 59.7522C94.5869 62.2036 94.625 64.7262 95.431 67.0492C96.2893 69.5219 97.9632 71.6261 99.0236 74.018C100.593 77.5512 100.75 81.5266 100.871 85.3902C100.992 89.2539 101.094 93.0914 101.185 96.9407C101.242 99.3612 101.247 101.953 99.9081 103.971C104.851 101.991 109.863 99.9698 114.093 96.7363C118.323 93.5027 121.747 88.8402 122.293 83.5428C122.736 79.2488 121.285 75.0166 120.035 70.8843C116.944 60.6605 114.947 49.7614 117.196 39.3213C118.007 35.5622 119.978 31.3657 123.76 30.6738C126.069 30.253 128.373 31.3063 130.453 32.3952C135.37 34.9678 140.44 38.2965 142.27 43.5344C143.935 48.2707 142.534 53.5466 140.368 58.0689C138.202 62.5911 135.254 66.7496 133.571 71.4763C130.986 78.7281 131.714 87.2186 136.008 93.6073C140.302 99.996 148.236 103.926 155.866 102.894C155.269 100.317 153.398 98.2342 152.394 95.7852C150.571 91.3367 151.8 86.22 153.761 81.8309C155.723 77.4418 158.4 73.3499 159.627 68.6898C160.492 65.4086 160.597 61.9801 160.592 58.5872C160.592 53.2471 160.328 47.9045 159.815 42.5881C159.301 37.2718 158.517 31.8888 156.824 26.7745C155.464 22.6731 153.483 18.7072 150.521 15.5616C147.368 12.2115 143.264 9.9409 139.234 7.71544C136.823 6.38872 134.36 5.04536 131.654 4.54844C129.514 4.15613 127.265 3.59739 125.082 3.56172C123.599 3.54032 122.039 3.8613 120.993 4.91459Z" fill="#434175"/>
<path d="M158.583 30.6926L145.734 28.1996C145.36 28.1271 144.998 28.3714 144.926 28.7452L138.77 60.475C138.697 60.8488 138.941 61.2107 139.315 61.2832L152.164 63.7762C152.538 63.8487 152.9 63.6045 152.973 63.2306L159.129 31.5008C159.201 31.127 158.957 30.7651 158.583 30.6926Z" fill="#656478"/>
<path d="M159.555 30.881L146.705 28.388C146.331 28.3155 145.97 28.5598 145.897 28.9336L139.741 60.6634C139.668 61.0373 139.913 61.3991 140.286 61.4716L153.136 63.9646C153.51 64.0372 153.871 63.7929 153.944 63.4191L160.1 31.6892C160.173 31.3154 159.928 30.9536 159.555 30.881Z" fill="#3F3D56"/>
<path d="M152.693 36.985C152.944 35.6895 152.714 34.5551 152.179 34.4513C151.644 34.3475 151.007 35.3136 150.756 36.6091C150.504 37.9047 150.734 39.039 151.269 39.1428C151.804 39.2466 152.442 38.2805 152.693 36.985Z" fill="#F4BE8A"/>
<path d="M155.735 47.7904C155.107 46.68 154.437 45.5316 153.379 44.8207C152.77 44.4477 152.117 44.1544 151.434 43.9481C149.13 43.1421 146.788 42.329 144.351 42.2006C143.954 42.1816 143.5 42.2006 143.24 42.5049C142.708 43.1302 143.552 43.9814 144.282 44.3595L150.088 47.3672L144.736 46.8013C143.958 46.7181 142.85 46.9297 142.908 47.7095C142.946 48.2207 143.507 48.4989 143.992 48.6606C147.427 49.8494 151.398 50.7814 153.279 53.8914C150.773 53.6536 148.212 53.4159 145.756 53.9675C145.083 54.1196 144.386 54.355 143.947 54.8852C143.507 55.4154 143.457 56.3118 144.011 56.7326C144.353 56.987 144.814 56.9942 145.242 56.9704C146.985 56.8872 148.773 56.5401 150.447 57.037C152.121 57.5339 153.607 59.2886 153.029 60.9339C154.513 61.0671 156.267 60.9339 157.639 60.2943C159.152 59.581 159.116 58.2401 159.023 56.6233C158.826 53.4563 157.254 50.5009 155.735 47.7904Z" fill="#FBBEBE"/>
<path opacity="0.1" d="M154.235 99.6203C152.904 90.2638 151.079 80.9844 148.766 71.821C147.577 67.0658 146.227 62.2297 146.567 57.3365C151.479 57.9618 155.88 58.4255 160.407 56.4188C160.481 58.989 162.345 61.174 163.022 63.6586C163.476 65.323 163.305 67.0848 163.484 68.7991C163.662 70.5133 164.197 72.1753 164.656 73.842C166.933 82.1013 167.469 90.7433 166.232 99.2208C162.031 99.7201 158.426 100.269 154.235 99.6203Z" fill="black"/>
<path d="M153.521 99.6203C152.191 90.2638 150.365 80.9844 148.053 71.821C146.864 67.0658 145.513 62.2297 145.853 57.3365C150.766 57.9618 155.167 58.4255 159.694 56.4188C159.767 58.989 161.631 61.174 162.309 63.6586C162.763 65.323 162.592 67.0848 162.77 68.7991C162.949 70.5133 163.483 72.1753 163.942 73.842C166.219 82.1013 166.756 90.7433 165.519 99.2208C161.317 99.7201 157.713 100.269 153.521 99.6203Z" fill="#F4BE8A"/>
<path d="M84.7935 145.932L87.1212 88.1863C87.1583 87.2684 87.5513 86.401 88.2171 85.7681C88.8829 85.1351 89.7691 84.7864 90.6877 84.7958L182.588 85.6755C183.075 85.6805 183.555 85.7861 184 85.9857C184.444 86.1854 184.842 86.4746 185.169 86.8354C185.496 87.1962 185.745 87.6208 185.9 88.0823C186.056 88.5439 186.114 89.0326 186.071 89.5177L181.216 144.838C181.14 145.708 180.744 146.519 180.105 147.114C179.466 147.71 178.63 148.047 177.756 148.062L88.3861 149.608C87.905 149.616 87.4273 149.526 86.9822 149.343C86.5372 149.16 86.1341 148.888 85.7978 148.544C85.4615 148.2 85.1989 147.79 85.0262 147.341C84.8535 146.892 84.7744 146.413 84.7935 145.932Z" fill="#3F3D56"/>
<path d="M136.119 115.791C138.352 115.791 140.161 113.662 140.161 111.035C140.161 108.409 138.352 106.28 136.119 106.28C133.887 106.28 132.077 108.409 132.077 111.035C132.077 113.662 133.887 115.791 136.119 115.791Z" fill="#F4BE8A"/>
<path d="M222.546 107.768L222.356 109.399L219.265 135.758C211.207 141.376 204.94 135.977 204.885 135.758L200.991 109.276L200.77 107.768H222.546Z" fill="#3F3D56"/>
<path opacity="0.1" d="M222.546 107.768L222.356 109.399C213.278 114.678 203.594 110.569 200.991 109.276L200.77 107.768H222.546Z" fill="black"/>
<path d="M200.315 106.337V108.715C200.315 108.715 212.322 115.695 223.141 108.715V106.337H200.315Z" fill="#F4BE8A"/>
<path d="M201.711 103.196C201.711 103.196 201.362 104.801 200.315 104.941V106.965H223.141V105.151C223.141 105.151 221.745 104.801 221.952 103.196H201.711Z" fill="#F4BE8A"/>
<path d="M211.659 106.337C217.345 106.337 221.954 105.009 221.954 103.37C221.954 101.731 217.345 100.403 211.659 100.403C205.973 100.403 201.364 101.731 201.364 103.37C201.364 105.009 205.973 106.337 211.659 106.337Z" fill="#F4BE8A"/>
<path opacity="0.1" d="M211.659 106.337C217.345 106.337 221.954 105.009 221.954 103.37C221.954 101.731 217.345 100.403 211.659 100.403C205.973 100.403 201.364 101.731 201.364 103.37C201.364 105.009 205.973 106.337 211.659 106.337Z" fill="black"/>
<path opacity="0.1" d="M220.696 103.196C220.696 104.385 216.792 105.36 211.973 105.36H211.716C208.48 105.336 205.684 104.884 204.258 104.209C203.613 103.905 203.247 103.56 203.247 103.196C203.247 102.592 204.246 102.046 205.862 101.653C207.871 101.214 209.924 101.006 211.98 101.033C216.792 101.033 220.696 102 220.696 103.196Z" fill="black"/>
<path opacity="0.1" d="M211.716 105.36C208.48 105.336 205.684 104.884 204.258 104.209L205.855 101.644L211.716 105.36Z" fill="black"/>
<path opacity="0.1" d="M202.598 103.363C202.474 103.337 202.31 103.379 202.286 103.503C202.283 103.566 202.3 103.628 202.334 103.681C202.606 104.112 203.002 104.451 203.47 104.654C203.55 104.699 203.638 104.727 203.73 104.737C203.777 104.743 203.825 104.734 203.868 104.712C203.91 104.69 203.945 104.655 203.967 104.613C203.98 104.577 203.986 104.539 203.983 104.501C203.98 104.463 203.969 104.426 203.951 104.392C203.878 104.264 203.777 104.153 203.656 104.069C203.337 103.819 203.012 103.432 202.598 103.363Z" fill="black"/>
<path d="M212.006 128.777C215.398 128.777 218.148 126.028 218.148 122.636C218.148 119.244 215.398 116.494 212.006 116.494C208.614 116.494 205.865 119.244 205.865 122.636C205.865 126.028 208.614 128.777 212.006 128.777Z" fill="#F4BE8A"/>
<path d="M44.778 122.65H47.6573C49.2338 122.65 50.7457 123.276 51.8604 124.391C52.9751 125.506 53.6014 127.018 53.6014 128.594V137.427H38.8339V128.594C38.8339 127.018 39.4602 125.506 40.5749 124.391C41.6896 123.276 43.2015 122.65 44.778 122.65Z" fill="#3F3D56"/>
<path opacity="0.1" d="M44.778 122.65H47.6573C49.2338 122.65 50.7457 123.276 51.8604 124.391C52.9751 125.506 53.6014 127.018 53.6014 128.594V137.427H38.8339V128.594C38.8339 127.018 39.4602 125.506 40.5749 124.391C41.6896 123.276 43.2015 122.65 44.778 122.65Z" fill="black"/>
<path d="M45.6268 125.9C46.2794 125.9 46.8085 125.371 46.8085 124.719C46.8085 124.066 46.2794 123.537 45.6268 123.537C44.9742 123.537 44.4451 124.066 44.4451 124.719C44.4451 125.371 44.9742 125.9 45.6268 125.9Z" fill="#3F3D56"/>
<path d="M45.6268 124.424C46.2794 124.424 46.8085 123.895 46.8085 123.242C46.8085 122.589 46.2794 122.06 45.6268 122.06C44.9742 122.06 44.4451 122.589 44.4451 123.242C44.4451 123.895 44.9742 124.424 45.6268 124.424Z" fill="#3F3D56"/>
<path d="M45.6268 122.945C46.2794 122.945 46.8085 122.416 46.8085 121.763C46.8085 121.111 46.2794 120.582 45.6268 120.582C44.9742 120.582 44.4451 121.111 44.4451 121.763C44.4451 122.416 44.9742 122.945 45.6268 122.945Z" fill="#3F3D56"/>
<path d="M45.6268 121.468C46.2794 121.468 46.8085 120.939 46.8085 120.287C46.8085 119.634 46.2794 119.105 45.6268 119.105C44.9742 119.105 44.4451 119.634 44.4451 120.287C44.4451 120.939 44.9742 121.468 45.6268 121.468Z" fill="#3F3D56"/>
<path d="M45.6268 119.992C46.2794 119.992 46.8085 119.463 46.8085 118.81C46.8085 118.158 46.2794 117.628 45.6268 117.628C44.9742 117.628 44.4451 118.158 44.4451 118.81C44.4451 119.463 44.9742 119.992 45.6268 119.992Z" fill="#3F3D56"/>
<path d="M45.6268 118.515C46.2794 118.515 46.8085 117.986 46.8085 117.334C46.8085 116.681 46.2794 116.152 45.6268 116.152C44.9742 116.152 44.4451 116.681 44.4451 117.334C44.4451 117.986 44.9742 118.515 45.6268 118.515Z" fill="#3F3D56"/>
<path d="M45.6268 117.039C46.2794 117.039 46.8085 116.51 46.8085 115.857C46.8085 115.205 46.2794 114.675 45.6268 114.675C44.9742 114.675 44.4451 115.205 44.4451 115.857C44.4451 116.51 44.9742 117.039 45.6268 117.039Z" fill="#3F3D56"/>
<path d="M47.4005 117.629C48.0531 117.629 48.5822 117.099 48.5822 116.447C48.5822 115.794 48.0531 115.265 47.4005 115.265C46.7479 115.265 46.2188 115.794 46.2188 116.447C46.2188 117.099 46.7479 117.629 47.4005 117.629Z" fill="#3F3D56"/>
<path d="M48.5822 117.039C49.2348 117.039 49.7638 116.51 49.7638 115.857C49.7638 115.205 49.2348 114.675 48.5822 114.675C47.9295 114.675 47.4005 115.205 47.4005 115.857C47.4005 116.51 47.9295 117.039 48.5822 117.039Z" fill="#3F3D56"/>
<path d="M49.7639 116.447C50.4165 116.447 50.9455 115.918 50.9455 115.265C50.9455 114.612 50.4165 114.083 49.7639 114.083C49.1112 114.083 48.5822 114.612 48.5822 115.265C48.5822 115.918 49.1112 116.447 49.7639 116.447Z" fill="#3F3D56"/>
<path d="M45.6268 115.562C46.2794 115.562 46.8085 115.033 46.8085 114.381C46.8085 113.728 46.2794 113.199 45.6268 113.199C44.9742 113.199 44.4451 113.728 44.4451 114.381C44.4451 115.033 44.9742 115.562 45.6268 115.562Z" fill="#3F3D56"/>
<path d="M45.6268 114.086C46.2794 114.086 46.8085 113.557 46.8085 112.904C46.8085 112.251 46.2794 111.722 45.6268 111.722C44.9742 111.722 44.4451 112.251 44.4451 112.904C44.4451 113.557 44.9742 114.086 45.6268 114.086Z" fill="#3F3D56"/>
<path d="M45.6268 112.607C46.2794 112.607 46.8085 112.078 46.8085 111.425C46.8085 110.773 46.2794 110.244 45.6268 110.244C44.9742 110.244 44.4451 110.773 44.4451 111.425C44.4451 112.078 44.9742 112.607 45.6268 112.607Z" fill="#3F3D56"/>
<path d="M45.6268 111.13C46.2794 111.13 46.8085 110.601 46.8085 109.949C46.8085 109.296 46.2794 108.767 45.6268 108.767C44.9742 108.767 44.4451 109.296 44.4451 109.949C44.4451 110.601 44.9742 111.13 45.6268 111.13Z" fill="#3F3D56"/>
<path d="M50.5247 106.14C50.2323 106.183 49.9375 106.213 49.6426 106.233C49.9178 105.992 50.173 105.73 50.4059 105.448C50.2414 104.952 50.0007 104.484 49.6926 104.062C49.3997 104.226 49.0758 104.328 48.7415 104.361C48.4491 104.404 48.1543 104.435 47.8594 104.456C48.247 104.14 48.6084 103.665 48.9888 103.268C48.1096 102.47 46.9762 102.011 45.7901 101.971C44.604 101.931 43.4421 102.313 42.5111 103.048C41.58 103.784 40.9402 104.827 40.7053 105.99C40.4705 107.153 40.6558 108.362 41.2284 109.402C41.801 110.441 42.7237 111.244 43.8325 111.667C44.9412 112.09 46.1642 112.107 47.2837 111.713C48.4033 111.319 49.347 110.541 49.947 109.517C50.547 108.493 50.7643 107.29 50.5604 106.121L50.5247 106.14Z" fill="#F4BE8A"/>
<path d="M54.474 112.01C54.1725 112.195 53.8324 112.308 53.4801 112.341C53.1877 112.383 52.8929 112.417 52.598 112.436C52.9114 112.155 53.2038 111.851 53.473 111.528C52.7605 111.342 52.0044 111.428 51.3525 111.771C50.7005 112.113 50.1996 112.686 49.9476 113.377C49.6956 114.069 49.7108 114.83 49.99 115.511C50.2693 116.193 50.7926 116.745 51.4576 117.061C52.1226 117.377 52.8816 117.434 53.5861 117.22C54.2906 117.006 54.89 116.537 55.2671 115.905C55.6443 115.272 55.7719 114.522 55.6253 113.8C55.4786 113.079 55.0681 112.438 54.474 112.003V112.01Z" fill="#F4BE8A"/>
<path d="M43.8555 117.629C44.5081 117.629 45.0372 117.099 45.0372 116.447C45.0372 115.794 44.5081 115.265 43.8555 115.265C43.2029 115.265 42.6738 115.794 42.6738 116.447C42.6738 117.099 43.2029 117.629 43.8555 117.629Z" fill="#3F3D56"/>
<path d="M42.6738 117.039C43.3264 117.039 43.8555 116.51 43.8555 115.857C43.8555 115.205 43.3264 114.675 42.6738 114.675C42.0212 114.675 41.4921 115.205 41.4921 115.857C41.4921 116.51 42.0212 117.039 42.6738 117.039Z" fill="#3F3D56"/>
<path d="M41.4921 116.447C42.1448 116.447 42.6738 115.918 42.6738 115.265C42.6738 114.612 42.1448 114.083 41.4921 114.083C40.8395 114.083 40.3105 114.612 40.3105 115.265C40.3105 115.918 40.8395 116.447 41.4921 116.447Z" fill="#3F3D56"/>
<path d="M36.782 112.01C37.0834 112.196 37.4235 112.309 37.7759 112.341C38.0683 112.383 38.3631 112.417 38.658 112.436C38.344 112.155 38.0515 111.852 37.783 111.528C38.4955 111.342 39.2516 111.428 39.9035 111.771C40.5555 112.113 41.0564 112.686 41.3084 113.377C41.5604 114.069 41.5452 114.83 41.266 115.511C40.9867 116.193 40.4634 116.745 39.7984 117.061C39.1334 117.377 38.3744 117.434 37.6699 117.22C36.9654 117.006 36.366 116.537 35.9889 115.905C35.6117 115.272 35.4841 114.522 35.6307 113.8C35.7774 113.079 36.1879 112.438 36.782 112.003V112.01Z" fill="#F4BE8A"/>
<path d="M44.778 123.537H47.6573C49.2338 123.537 50.7457 124.163 51.8604 125.278C52.9751 126.393 53.6014 127.904 53.6014 129.481V137.296C53.6014 137.564 53.4952 137.82 53.3061 138.009C53.1171 138.198 52.8606 138.304 52.5933 138.304H39.842C39.5747 138.304 39.3183 138.198 39.1292 138.009C38.9401 137.82 38.8339 137.564 38.8339 137.296V129.481C38.8339 127.904 39.4602 126.393 40.5749 125.278C41.6896 124.163 43.2015 123.537 44.778 123.537Z" fill="#3F3D56"/>
<g opacity="0.1">
<path opacity="0.1" d="M50.6151 106.463C50.4955 106.591 50.3684 106.712 50.2347 106.825C50.3702 106.825 50.5034 106.803 50.6389 106.789C50.6436 106.679 50.627 106.57 50.6151 106.463Z" fill="black"/>
<path opacity="0.1" d="M48.4609 105.051C48.7581 105.032 49.0506 105.001 49.3454 104.958C49.6099 104.925 49.8684 104.854 50.1134 104.749C49.9936 104.511 49.8553 104.283 49.6997 104.066C49.5518 104.157 49.3916 104.225 49.2241 104.269C48.991 104.549 48.7358 104.811 48.4609 105.051Z" fill="black"/>
<path opacity="0.1" d="M41.1973 107.588C41.1955 106.686 41.4369 105.801 41.896 105.025C42.3551 104.25 43.0149 103.612 43.8059 103.18C44.5969 102.747 45.4899 102.537 46.3907 102.569C47.2915 102.602 48.1669 102.877 48.9246 103.365L49.0007 103.284C48.5062 102.844 47.9295 102.506 47.3039 102.29C46.6783 102.074 46.0161 101.984 45.3554 102.025C44.6948 102.066 44.0488 102.237 43.4547 102.529C42.8606 102.821 42.33 103.227 41.8937 103.725C41.4573 104.223 41.1237 104.802 40.9122 105.429C40.7007 106.056 40.6153 106.719 40.6611 107.379C40.7069 108.039 40.8829 108.684 41.1789 109.276C41.475 109.868 41.8852 110.396 42.3861 110.828C41.6172 109.924 41.1957 108.775 41.1973 107.588Z" fill="black"/>
</g>
<g opacity="0.1">
<path opacity="0.1" d="M52.5981 113.025C52.8929 113.006 53.1877 112.975 53.4802 112.933C53.8326 112.899 54.1727 112.786 54.474 112.6C54.8079 112.846 55.0862 113.159 55.291 113.519C55.4959 113.88 55.6225 114.279 55.6628 114.692C55.6744 114.589 55.6799 114.485 55.6795 114.381C55.6817 113.919 55.5753 113.463 55.3688 113.05C55.1623 112.637 54.8614 112.278 54.4907 112.003C54.1892 112.188 53.8491 112.301 53.4968 112.333L53.2591 112.364C53.0562 112.601 52.8352 112.822 52.5981 113.025Z" fill="black"/>
<path opacity="0.1" d="M52.7169 112.017C52.8156 112.018 52.914 112.026 53.0118 112.039C53.1663 111.875 53.3185 111.699 53.473 111.527C53.0359 111.411 52.5778 111.396 52.1341 111.485C51.6905 111.574 51.2732 111.763 50.9146 112.039C50.556 112.315 50.2657 112.67 50.0661 113.076C49.8666 113.482 49.7632 113.928 49.7639 114.381C49.7639 114.48 49.7639 114.578 49.7782 114.675C49.8513 113.947 50.1925 113.271 50.7355 112.78C51.2785 112.289 51.9847 112.017 52.7169 112.017Z" fill="black"/>
</g>
<g opacity="0.1">
<path opacity="0.1" d="M38.658 113.025C38.3632 113.006 38.0684 112.975 37.7759 112.933C37.4234 112.9 37.0832 112.786 36.7821 112.6C36.4482 112.846 36.1699 113.159 35.9651 113.519C35.7602 113.88 35.6336 114.279 35.5932 114.692C35.5817 114.589 35.5762 114.485 35.5766 114.381C35.5744 113.919 35.6808 113.463 35.8873 113.05C36.0938 112.637 36.3946 112.278 36.7654 112.003C37.0668 112.188 37.4069 112.302 37.7593 112.333L37.997 112.364C38.1986 112.603 38.4197 112.824 38.658 113.025Z" fill="black"/>
<path opacity="0.1" d="M38.5391 112.017C38.4397 112.018 38.3405 112.026 38.2419 112.039C38.0898 111.875 37.9376 111.699 37.7831 111.527C38.2202 111.411 38.6783 111.396 39.1219 111.485C39.5656 111.574 39.9829 111.763 40.3415 112.039C40.7001 112.315 40.9904 112.67 41.1899 113.076C41.3895 113.482 41.4929 113.928 41.4922 114.381C41.4922 114.48 41.4922 114.578 41.4779 114.675C41.4048 113.947 41.0636 113.271 40.5206 112.78C39.9775 112.289 39.2714 112.017 38.5391 112.017Z" fill="black"/>
</g>
</svg>
