<svg width="218" height="209" viewBox="0 0 218 209" fill="none" xmlns="http://www.w3.org/2000/svg">
<path d="M139.075 75.6432C141.588 79.7018 142.747 80.4745 145.259 81.4405C139.477 82.2825 135.21 80.0887 129.993 74.8705C129.085 73.9634 124.86 67.6697 124.002 64.629C122.768 60.2555 125.713 59.3463 127.287 60.5702C129.026 61.9232 128.384 60.9927 130.185 64.8218C133.278 71.3928 142.553 75.2567 146.805 75.6432C145.259 77.5754 143.133 77.3824 139.075 75.6432Z" fill="#775141"/>
<path d="M139.075 75.6432C141.588 79.7018 142.747 80.4745 145.259 81.4405C139.477 82.2825 135.21 80.0887 129.993 74.8705C129.085 73.9634 124.86 67.6697 124.002 64.629C122.768 60.2555 125.713 59.3463 127.287 60.5702C129.026 61.9232 128.384 60.9927 130.185 64.8218C133.278 71.3928 142.553 75.2567 146.805 75.6432C145.259 77.5754 143.133 77.3824 139.075 75.6432Z" stroke="#1A1919" stroke-width="1.02709" stroke-linecap="round" stroke-linejoin="round"/>
<path d="M78.3973 77.7696C87.479 71.7786 85.354 64.244 85.4649 56.8689C85.2156 60.9195 82.8221 64.0443 80.716 67.141C78.8932 69.8189 74.6856 72.0658 71.7743 73.4511C68.6414 74.9412 65.5524 74.6113 62.5508 75.4608C65.3485 77.1684 69.1554 76.8978 71.7891 75.8872C69.7714 77.3049 67.1537 79.2716 65.4075 80.1837C69.3139 81.8277 75.1088 79.938 78.3973 77.7696Z" fill="#775141"/>
<path d="M78.3973 77.7696C87.479 71.7786 85.354 64.244 85.4649 56.8689C85.2156 60.9195 82.8221 64.0443 80.7159 67.141C78.8932 69.8189 74.6856 72.0658 71.7743 73.4511C68.6414 74.9412 65.5524 74.6113 62.5508 75.4608C65.3485 77.1684 69.1554 76.8978 71.7891 75.8872C69.7714 77.3049 67.1537 79.2716 65.4075 80.1837C69.3139 81.8277 75.1088 79.938 78.3973 77.7696Z" stroke="#1A1919" stroke-width="1.02709" stroke-linecap="round" stroke-linejoin="round"/>
<path d="M96.9486 76.9964C85.449 75.3222 76.6895 80.3581 71.4403 86.6588C67.5747 91.2964 63.811 98.9667 61.9226 104.485C60.0382 109.993 57.8258 118.396 57.2845 120.718C55.1967 129.665 54.6759 127.385 56.1253 134.921C56.6412 137.604 63.4306 136.531 66.2215 137.824C69.1146 139.165 73.0063 136.726 73.7594 140.573C74.2418 143.037 74.1464 151.273 74.1464 153.715C74.1464 158.933 72.5819 168.14 72.4062 171.492C74.3481 171.709 105.366 172.207 108.929 172.361C120.55 172.864 135.909 173.443 147.577 171.879C146.092 163.808 144.287 156.499 142.555 137.482C142.334 135.066 151.792 135.18 153.858 133.23C157.336 129.946 159.945 124.617 158.399 119.703C157.493 116.816 153.771 107.314 151.056 101.877C147.412 94.5796 142.704 88.5383 140.766 86.0788C135.741 79.7018 127.722 76.6582 117.819 76.0304C111.259 75.615 99.8811 77.4237 96.9486 76.9964Z" fill="#DBA6B6"/>
<path d="M96.9486 76.9964C85.449 75.3222 76.6895 80.3581 71.4403 86.6588C67.5747 91.2964 63.811 98.9667 61.9226 104.485C60.0382 109.993 57.8258 118.396 57.2845 120.718C55.1967 129.665 54.6759 127.385 56.1253 134.921C56.6412 137.604 63.4306 136.531 66.2215 137.824C69.1146 139.165 73.0063 136.726 73.7594 140.573C74.2418 143.037 74.1464 151.273 74.1464 153.715C74.1464 158.933 72.5819 168.14 72.4062 171.492C74.3481 171.709 105.366 172.207 108.929 172.361C120.55 172.864 135.909 173.443 147.577 171.879C146.092 163.808 144.287 156.499 142.555 137.482C142.334 135.066 151.792 135.18 153.858 133.23C157.336 129.946 159.945 124.617 158.399 119.703C157.493 116.816 153.771 107.314 151.056 101.877C147.412 94.5796 142.704 88.5383 140.766 86.0788C135.741 79.7018 127.722 76.6582 117.819 76.0304C111.259 75.615 99.8811 77.4237 96.9486 76.9964Z" stroke="#1A1919" stroke-width="1.02709" stroke-linecap="round" stroke-linejoin="round"/>
<path d="M124.872 85.9822C123.842 81.5855 119.835 74.7318 118.205 73.8079C116.799 73.0113 117.959 75.7621 117.48 76.7065C115.427 80.7572 114.87 85.9334 112.413 89.7282C111.299 91.4476 108.409 92.0324 109.509 94.3883C114.147 95.5478 116.175 99.7508 118.93 104.678C124.544 101.236 126.587 93.309 124.872 85.9822Z" fill="#FFFFFE"/>
<path d="M124.872 85.9822C123.842 81.5855 119.835 74.7318 118.205 73.8079C116.799 73.0113 117.959 75.7621 117.48 76.7065C115.427 80.7572 114.87 85.9334 112.413 89.7282C111.299 91.4476 108.409 92.0324 109.509 94.3883C114.147 95.5478 116.175 99.7508 118.93 104.678C124.544 101.236 126.587 93.309 124.872 85.9822Z" stroke="#1A1919" stroke-width="1.02709" stroke-linecap="round" stroke-linejoin="round"/>
<path d="M108.543 88.5796C108.566 86.152 107.21 84.1056 105.49 81.9618C104.458 80.6736 103.654 79.4552 102.784 78.0952C101.95 76.7896 101.442 75.9077 99.9379 75.5113C98.3571 75.0958 93.1473 74.8064 92.4069 75.5471C89.5083 78.4457 87.7725 82.1722 87.0932 85.6923C85.4987 93.9535 87.4304 102.166 93.6625 105.403C95.2092 101.732 98.998 97.1992 99.4598 96.7069C102.584 93.3769 103.44 94.6989 105.161 90.765C105.626 89.7007 108.536 89.5065 108.543 88.5796Z" fill="#FFFFFE"/>
<path d="M108.543 88.5796C108.566 86.152 107.21 84.1056 105.49 81.9618C104.458 80.6736 103.654 79.4552 102.784 78.0952C101.95 76.7896 101.442 75.9077 99.9379 75.5113C98.3571 75.0958 93.1473 74.8064 92.4069 75.5471C89.5083 78.4457 87.7725 82.1722 87.0932 85.6923C85.4987 93.9535 87.4304 102.166 93.6625 105.403C95.2092 101.732 98.998 97.1992 99.4598 96.7069C102.584 93.3769 103.44 94.6989 105.161 90.765C105.626 89.7007 108.536 89.5065 108.543 88.5796Z" stroke="#1A1919" stroke-width="1.02709" stroke-linecap="round" stroke-linejoin="round"/>
<path d="M117.335 79.895C115.724 72.4421 118.014 69.2278 112.926 66.7221C103.588 62.1232 101.278 64.5175 99.1235 64.989C96.7718 65.503 97.8952 68.3645 97.1409 70.6191C95.9599 74.1548 94.7256 76.1266 93.2762 81.6342C91.4136 88.7103 94.7256 92.359 99.3637 94.2431C101.822 95.2424 109.525 95.1159 112.408 94.0984C117.335 92.359 119.654 90.6198 117.335 79.895Z" fill="#F0AD9C"/>
<path d="M117.335 79.895C115.724 72.4421 118.014 69.2278 112.926 66.7221C103.588 62.1232 101.278 64.5175 99.1235 64.989C96.7718 65.503 97.8952 68.3645 97.1409 70.6191C95.9599 74.1548 94.7256 76.1266 93.2762 81.6342C91.4136 88.7103 94.7256 92.359 99.3637 94.2431C101.822 95.2424 109.525 95.1159 112.408 94.0984C117.335 92.359 119.654 90.6198 117.335 79.895Z" stroke="#1A1919" stroke-width="1.02709" stroke-linecap="round" stroke-linejoin="round"/>
<path d="M84.0008 60.184C84.1412 56.775 84.7786 52.4881 82.666 49.5841C81.0468 47.3565 80.9413 48.0681 78.3972 47.43C75.0024 46.5792 70.6839 50.8661 70.667 54.1932C70.6477 58.3574 71.4528 59.4594 74.435 62.2133C77.5252 65.0665 83.7549 66.1236 84.0008 60.184Z" fill="#F2B5A9"/>
<path d="M84.0008 60.184C84.1412 56.775 84.7786 52.4881 82.666 49.5841C81.0468 47.3565 80.9413 48.0681 78.3972 47.43C75.0024 46.5792 70.6839 50.8661 70.667 54.1932C70.6477 58.3574 71.4528 59.4594 74.435 62.2133C77.5252 65.0665 83.7549 66.1236 84.0008 60.184Z" stroke="#1A1919" stroke-width="1.02709" stroke-linecap="round" stroke-linejoin="round"/>
<path d="M127.339 59.5093C127.197 56.1012 126.691 50.7602 128.804 47.857C130.423 45.6292 130.734 46.9087 133.278 46.2707C136.672 45.419 140.524 47.4299 141.2 50.9086C141.995 54.9954 139.547 59.5557 136.563 62.3099C133.474 65.1624 127.584 65.4499 127.339 59.5093Z" fill="#F2B5A9"/>
<path d="M127.339 59.5093C127.197 56.1012 126.691 50.7602 128.804 47.857C130.423 45.6292 130.734 46.9087 133.278 46.2707C136.672 45.419 140.524 47.4299 141.2 50.9086C141.995 54.9954 139.547 59.5557 136.563 62.3099C133.474 65.1624 127.584 65.4499 127.339 59.5093Z" stroke="#1A1919" stroke-width="1.02709" stroke-linecap="round" stroke-linejoin="round"/>
<path d="M132.21 61.0586C134.602 51.2276 134.569 34.966 131.829 26.5599C125.616 19.894 107.683 9.53686 98.1929 12.9894C92.1545 15.1854 81.6445 29.6979 77.3337 34.386C75.6911 47.2364 76.5346 59.0658 83.4211 69.1698C87.9546 75.8217 97.6337 83.0913 106.417 82.6004C114.682 82.1386 129.074 73.9509 132.21 61.0586Z" fill="#F2B5A9"/>
<path d="M104.967 58.9279C100.04 57.4786 101.393 63.9524 104.581 63.9524M132.21 61.0586C134.602 51.2276 134.569 34.966 131.829 26.5599C125.616 19.894 107.683 9.53686 98.1929 12.9894C92.1545 15.1854 81.6445 29.6979 77.3337 34.386C75.6911 47.2364 76.5346 59.0658 83.4211 69.1698C87.9546 75.8217 97.6337 83.0913 106.417 82.6004C114.682 82.1386 129.074 73.9509 132.21 61.0586ZM86.7058 45.4977C87.479 39.5069 96.7165 38.3332 98.7839 44.5313L86.7058 45.4977ZM109.509 44.5313C111.056 38.3463 119.036 37.753 121.104 43.9518L109.509 44.5313Z" stroke="#1A1919" stroke-width="1.02709" stroke-linecap="round" stroke-linejoin="round"/>
<path d="M96.9486 39.8942C99.8472 36.1259 103.98 30.4289 102.746 23.468C97.9878 33.3432 95.5942 38.348 88.8321 41.2466C91.1513 36.4158 94.7256 30.5209 94.4359 25.0137C91.4728 33.3756 87.7691 39.7005 81.6817 43.1791C83.711 38.2511 87.5753 33.4196 86.7057 27.3326C82.6476 31.3908 76.4643 44.2393 76.4643 49.7491C71.2468 48.0099 64.5799 32.9367 72.1164 19.6029C78.5352 8.24625 103.422 -6.48492 118.495 5.39954C126.66 5.50896 134.327 9.22745 140.524 20.4728C145.352 29.2349 145.162 45.4011 133.857 49.7491C133.401 47.3536 131.924 41.2348 128.64 37.9608C123.58 32.9154 118.205 35.6419 113.181 22.3086C110.862 29.459 102.746 39.8942 96.9486 39.8942Z" fill="#775141"/>
<path d="M96.9486 39.8942C99.8472 36.1259 103.98 30.4289 102.746 23.468C97.9878 33.3432 95.5942 38.348 88.8321 41.2466C91.1513 36.4158 94.7256 30.5209 94.4359 25.0137C91.4728 33.3756 87.7691 39.7005 81.6817 43.1791C83.711 38.2511 87.5753 33.4196 86.7057 27.3326C82.6476 31.3908 76.4643 44.2393 76.4643 49.7491C71.2468 48.0099 64.5799 32.9367 72.1164 19.6029C78.5352 8.24625 103.422 -6.48492 118.495 5.39954C126.66 5.50896 134.327 9.22745 140.524 20.4728C145.352 29.2349 145.162 45.4011 133.857 49.7491C133.401 47.3536 131.924 41.2348 128.64 37.9608C123.58 32.9154 118.205 35.6419 113.181 22.3086C110.862 29.459 102.746 39.8942 96.9486 39.8942Z" stroke="#1A1919" stroke-width="1.02709" stroke-linecap="round" stroke-linejoin="round"/>
<path d="M97.6243 68.8799C102.552 79.0252 110.862 77.673 113.761 68.1072C110.089 71.3928 102.746 73.1313 97.6243 68.8799Z" fill="#E46C62"/>
<path d="M97.6243 68.8799C102.552 79.0252 110.862 77.673 113.761 68.1072C110.089 71.3928 102.746 73.1313 97.6243 68.8799Z" stroke="#1A1919" stroke-width="1.02709" stroke-linecap="round" stroke-linejoin="round"/>
<path d="M93.2762 59.7982C97.9085 64.087 93.2018 67.4511 90.088 67.334C84.9665 67.141 85.3267 63.0118 86.0296 61.0538C86.7033 59.1743 91.5996 58.2457 93.2762 59.7982Z" fill="#EC9A9B"/>
<path d="M125.299 59.7453C127.308 65.73 120.055 66.5979 117.428 64.9211C115.389 63.6176 114.727 59.5074 117.988 57.9986C119.801 57.1604 124.571 57.5798 125.299 59.7453Z" fill="#EC9A9B"/>
<path d="M105.706 97.9041C109.654 96.5622 109.282 102.497 106.175 102.069C104.844 101.887 102.898 98.8585 105.706 97.9041Z" fill="#FFFFFE"/>
<path d="M105.706 97.9041C109.654 96.5622 109.282 102.497 106.175 102.069C104.844 101.887 102.898 98.8585 105.706 97.9041Z" stroke="#1A1919" stroke-width="1.02709" stroke-linecap="round" stroke-linejoin="round"/>
<path d="M106.32 106.852C109.544 105.801 109.717 111.338 106.61 110.91C105.279 110.727 103.5 107.774 106.32 106.852Z" fill="#FFFFFE"/>
<path d="M139.074 112.359C139.944 123.327 144.108 133.105 143.712 134.389C143.282 135.788 136.671 136.484 136.756 138.012M106.32 106.852C109.544 105.801 109.717 111.338 106.61 110.91C105.279 110.727 103.5 107.774 106.32 106.852ZM90.9576 51.488C90.9576 48.4928 95.5954 47.9135 96.465 51.1984L90.9576 51.488ZM111.538 51.1984C111.538 47.72 116.756 47.9128 116.756 50.9086L111.538 51.1984ZM76.4631 110.04C77.6226 114.388 74.9276 130.786 74.5314 132.07C74.1012 133.47 73.7705 134.889 73.8556 136.418L76.4631 110.04Z" stroke="#1A1919" stroke-width="1.02709" stroke-linecap="round" stroke-linejoin="round"/>
<path d="M106.308 106.152C106.308 104.017 105.003 100.33 105.033 97.6485C105.056 95.589 104.895 94.6912 105.672 93.3979C108.541 88.6156 105.531 82.4086 103.545 86.8081C101.887 90.4802 98.6028 98.5 97.3346 104.051C97.0232 105.416 95.9012 115.731 91.4818 120.022C79.6529 124.823 71.1325 131.177 75.3049 132.07C77.24 132.486 82.3648 135.854 87.3896 133.361C90.1027 132.016 97.4117 128.356 98.23 127.833C102.695 129.109 105.246 127.197 106.521 122.308C107.796 116.78 106.308 109.372 106.308 106.152Z" fill="#F2B5A9"/>
<path d="M106.308 106.152C106.308 104.017 105.003 100.33 105.033 97.6485C105.056 95.589 104.895 94.6912 105.672 93.3979C108.541 88.6156 105.531 82.4086 103.545 86.8081C101.887 90.4802 98.6028 98.5 97.3346 104.051C97.0232 105.416 95.9012 115.731 91.4818 120.022C79.6529 124.823 71.1325 131.177 75.3049 132.07C77.24 132.486 82.3648 135.854 87.3896 133.361C90.1027 132.016 97.4117 128.356 98.23 127.833C102.695 129.109 105.246 127.197 106.521 122.308C107.796 116.78 106.308 109.372 106.308 106.152Z" stroke="#1A1919" stroke-width="1.02709" stroke-linecap="round" stroke-linejoin="round"/>
<path d="M105.672 119.755C105.033 111.891 104.396 111.498 104.396 108.277C104.396 106.143 105.004 100.33 105.033 97.6485C105.056 95.589 105.81 94.8218 106.308 93.3986C107.407 90.2611 105.445 86.6899 103.971 89.7838C102.322 93.2389 101.115 97.9198 99.8473 103.471" fill="#F2B5A9"/>
<path d="M105.672 119.755C105.033 111.891 104.396 111.498 104.396 108.277C104.396 106.143 105.004 100.33 105.033 97.6485C105.056 95.589 105.81 94.8218 106.308 93.3986C107.407 90.2611 105.445 86.6899 103.971 89.7838C102.322 93.2389 101.115 97.9198 99.8473 103.471" stroke="#1A1919" stroke-width="1.02709" stroke-linecap="round" stroke-linejoin="round"/>
<path d="M101.779 107.142C102.843 102.678 103.029 97.4976 103.332 96.5864C105.459 91.6978 107.159 95.9492 106.521 98.2872C106.567 99.0809 106.676 102.966 106.947 105.036C107.424 108.703 106.807 110.495 107.266 112.21C108.967 118.587 107.371 124.221 103.332 127.621" fill="#F2B5A9"/>
<path d="M101.779 107.142C102.843 102.678 103.029 97.4976 103.332 96.5864C105.459 91.6978 107.159 95.9492 106.521 98.2872C106.567 99.0809 106.676 102.966 106.947 105.036C107.424 108.703 106.807 110.495 107.266 112.21C108.967 118.587 107.371 124.221 103.332 127.621" stroke="#1A1919" stroke-width="1.02709" stroke-linecap="round" stroke-linejoin="round"/>
<path d="M62.7919 102.311C59.3135 110.234 56.3197 119.604 54.3858 125.791C52.4529 131.974 52.502 136.323 52.8889 140.573C53.3827 145.999 59.7416 147.584 64.0965 147.53C69.2982 147.467 76.1665 144.559 84.2907 139.896C87.8471 137.856 88.7553 138.679 93.8562 136.128C90.9576 133.519 88.993 128.672 88.0589 119.026C84.0733 122.853 67.9609 125.114 60.2307 130.525" fill="#DBA6B6"/>
<path d="M62.7919 102.311C59.3135 110.234 56.3197 119.604 54.3858 125.791C52.4529 131.974 52.502 136.323 52.8889 140.573C53.3827 145.999 59.7416 147.584 64.0965 147.53C69.2982 147.467 76.1665 144.559 84.2907 139.896C87.8471 137.856 88.7553 138.679 93.8562 136.128C90.9576 133.519 88.993 128.672 88.0589 119.026C84.0733 122.853 67.9609 125.114 60.2307 130.525" stroke="#1A1919" stroke-width="1.02709" stroke-linecap="round" stroke-linejoin="round"/>
<path d="M108.434 109.34C108.434 107.206 108.012 100.755 107.981 98.0739C107.959 96.0147 107.843 95.2465 107.345 93.8233C105.395 88.2562 107.234 82.2591 109.816 87.9779C111.473 91.6498 114.23 97.9203 115.5 103.471C115.811 104.838 117.431 115.645 121.135 120.978C131.338 127.197 138.512 130.766 134.34 131.66C132.405 132.075 133.666 138.044 128.64 135.548C124.582 134.679 115.604 128.781 114.784 128.259C111.251 128.95 108.86 127.835 107.584 122.946C106.308 117.418 108.434 112.561 108.434 109.34Z" fill="#F2B5A9"/>
<path d="M108.434 109.34C108.434 107.206 108.012 100.755 107.981 98.0739C107.959 96.0147 107.843 95.2465 107.345 93.8233C105.395 88.2562 107.234 82.2591 109.816 87.9779C111.473 91.6498 114.23 97.9203 115.5 103.471C115.811 104.838 117.431 115.645 121.135 120.978C131.338 127.197 138.512 130.766 134.34 131.66C132.405 132.075 133.666 138.044 128.64 135.548C124.582 134.679 115.604 128.781 114.784 128.259C111.251 128.95 108.86 127.835 107.584 122.946C106.308 117.418 108.434 112.561 108.434 109.34Z" stroke="#1A1919" stroke-width="1.02709" stroke-linecap="round" stroke-linejoin="round"/>
<path d="M107.345 120.181C107.981 112.316 108.62 111.922 108.62 108.702C108.62 106.568 108.012 100.755 107.981 98.0739C107.959 96.0146 106.806 95.7786 106.308 94.3547C105.21 91.2171 106.699 89.1434 108.86 91.8044C111.623 95.2057 112.241 98.2635 113.509 103.814" fill="#F2B5A9"/>
<path d="M107.345 120.181C107.981 112.316 108.62 111.922 108.62 108.702C108.62 106.568 108.012 100.755 107.981 98.0739C107.959 96.0146 106.806 95.7786 106.308 94.3547C105.21 91.2171 106.699 89.1434 108.86 91.8044C111.623 95.2057 112.241 98.2635 113.509 103.814" stroke="#1A1919" stroke-width="1.02709" stroke-linecap="round" stroke-linejoin="round"/>
<path d="M110.862 106.562C110.197 102.153 109.039 97.8111 108.735 96.9002C106.61 92.0116 105.585 96.4953 106.224 98.8329C106.178 99.6266 106.772 106.297 106.787 108.385C106.813 112.038 106.203 112.679 105.99 114.443C105.166 121.245 106.308 126.08 111.57 128.152" fill="#F2B5A9"/>
<path d="M110.862 106.562C110.197 102.153 109.039 97.8111 108.735 96.9002C106.61 92.0116 105.585 96.4953 106.224 98.8329C106.178 99.6266 106.772 106.297 106.787 108.385C106.813 112.038 106.203 112.679 105.99 114.443C105.166 121.245 106.308 126.08 111.57 128.152" stroke="#1A1919" stroke-width="1.02709" stroke-linecap="round" stroke-linejoin="round"/>
<path d="M153.954 108.109C155.686 112.441 160.29 123.702 161.107 126.66C162.471 131.617 163.375 136.801 162.266 140.573C160.331 147.143 154.889 148.374 146.805 146.758C143.424 146.081 139.461 145.211 132.118 142.215C128.32 140.666 124.175 138.679 119.074 136.128C121.104 133.809 121.877 128.34 124.002 120.475C126.527 124.569 153.995 127.462 155.307 128.979" fill="#DBA6B6"/>
<path d="M153.954 108.109C155.686 112.441 160.29 123.702 161.107 126.66C162.471 131.617 163.375 136.801 162.266 140.573C160.331 147.143 154.889 148.374 146.805 146.758C143.424 146.081 139.461 145.211 132.118 142.215C128.32 140.666 124.175 138.679 119.074 136.128C121.104 133.809 121.877 128.34 124.002 120.475C126.527 124.568 153.995 127.462 155.307 128.979" stroke="#1A1919" stroke-width="1.02709" stroke-linecap="round" stroke-linejoin="round"/>
<path d="M91.6967 10.4767C91.0313 11.3089 89.4573 11.393 88.4471 11.4869C84.6405 11.841 82.3986 14.1788 80.4715 17.2574C79.8261 18.2908 76.2334 26.3768 74.5314 23.0815C73.6097 21.2928 77.1743 16.3279 78.2035 15.1583C79.799 13.3438 82.0636 11.6855 84.3789 11.0384C85.9654 10.5946 88.0283 10.5074 89.0145 8.96993C90.4129 6.79063 90.6984 5.90751 93.6625 5.88239C97.1114 5.85365 97.2462 3.87387 100.427 3.56371C102.542 3.35694 108.84 3.5456 110.668 4.53017C115.692 7.23558 104.628 5.0227 102.388 5.56837C102.372 6.23458 101.419 7.15586 101.393 7.81531C99.0511 8.76099 97.7614 7.41505 95.4674 7.4322C92.8801 7.4508 93.0103 8.83321 91.6967 10.4767Z" fill="#A07A5F"/>
<path d="M129.907 13.136C132.245 15.0568 131.767 17.8016 133.224 20.1703C134.524 22.2866 137.301 22.804 138.737 24.7833C139.793 26.241 140.478 28.402 139.793 30.1368C138.359 27.5041 135.312 25.5673 132.917 23.7977C129.803 21.4962 129.359 20.7295 128.954 17.0294C128.691 14.639 126.362 13.7037 124.515 12.3954C123.904 11.9613 120.249 9.17452 119.809 9.19795C123.643 8.99457 126.979 10.7299 129.907 13.136Z" fill="#A07A5F"/>
<path d="M216.495 201.102L107.062 205.69L1.15479 200.885L19.1561 147.074L192.281 147.51L216.495 201.102Z" fill="#F4BE8A"/>
<path d="M216.495 201.102L107.062 205.69L1.15479 200.885L19.1561 147.074L192.282 147.51L216.495 201.102Z" stroke="#1A1919" stroke-width="1.02709" stroke-linecap="round" stroke-linejoin="round"/>
<path d="M216.338 207.982H1.46064L1 201.095H216.794L216.338 207.982Z" fill="#DAA275"/>
<path d="M216.338 207.982H1.46064L1 201.095H216.794L216.338 207.982Z" stroke="#1A1919" stroke-width="1.02709" stroke-linecap="round" stroke-linejoin="round"/>
<path d="M52.3353 148.842C51.5756 151.885 45.3502 183.936 45.3775 187.672C45.4046 191.409 49.2351 195.361 53.9194 195.327C58.6048 195.293 163.22 195.426 167.901 195.395C172.58 195.358 176.264 193.141 174.655 186.604C173.047 180.072 165.471 155.789 163.959 151.377C162.162 146.131 158.143 143.703 154.239 143.732C150.338 143.76 63.0919 143.674 59.1889 143.701C55.2895 143.73 53.0971 145.798 52.3353 148.842Z" fill="#E9E9E8"/>
<path d="M52.3353 148.842C51.5756 151.885 45.3502 183.936 45.3775 187.672C45.4046 191.409 49.2351 195.361 53.9194 195.327C58.6048 195.293 163.22 195.426 167.901 195.395C172.58 195.358 176.264 193.141 174.655 186.604C173.047 180.072 165.471 155.789 163.959 151.377C162.162 146.131 158.143 143.703 154.239 143.732C150.338 143.76 63.0919 143.674 59.1889 143.701C55.2895 143.73 53.0971 145.798 52.3353 148.842Z" stroke="#1A1919" stroke-width="1.02709" stroke-linecap="round" stroke-linejoin="round"/>
<path d="M54.3904 150.946C53.6682 153.622 48.3484 183.951 48.3723 187.237C48.3962 190.522 50.6403 192.834 55.0822 192.803C59.5266 192.769 162.232 192.723 166.674 192.689C171.112 192.658 173.708 191.38 172.184 185.633C170.66 179.886 162.913 155.531 161.399 151.69C159.701 147.385 155.577 146.062 151.874 146.089C148.173 146.116 63.5733 146.246 59.873 146.271C56.1704 146.301 55.1151 148.268 54.3904 150.946Z" fill="#E9E9E8"/>
<path d="M54.3904 150.946C53.6682 153.622 48.3484 183.951 48.3723 187.237C48.3962 190.522 50.6403 192.834 55.0822 192.803C59.5266 192.769 162.232 192.723 166.674 192.689C171.112 192.658 173.708 191.38 172.184 185.633C170.66 179.886 162.913 155.531 161.399 151.69C159.701 147.385 155.577 146.062 151.874 146.089C148.173 146.116 63.5733 146.246 59.873 146.271C56.1704 146.301 55.1151 148.268 54.3904 150.946Z" stroke="#1A1919" stroke-width="1.02709" stroke-linecap="round" stroke-linejoin="round"/>
<path d="M104.249 182.663C106.478 181.969 106.446 181.657 107.259 184.381C107.22 184.257 102.128 185.199 101.579 185.117C100.728 184.99 99.0364 184.497 99.2199 183.258C99.4868 181.451 103.094 183.021 104.249 182.663Z" fill="#DEE1BB"/>
<path d="M104.249 182.663C106.478 181.969 106.446 181.657 107.259 184.381C107.22 184.257 102.128 185.199 101.579 185.117C100.728 184.99 99.0364 184.497 99.2199 183.258C99.4868 181.451 103.094 183.021 104.249 182.663Z" stroke="#1A1919" stroke-width="1.02709" stroke-linecap="round" stroke-linejoin="round"/>
<path d="M142.066 138.433C145.773 138.42 156.476 140.136 160.464 143.377C162.829 145.297 163.153 148.811 159.933 150.524C155.428 152.92 146.658 153.26 141.517 153.271C136.202 153.281 118.663 151.018 121.266 143.855C123.102 138.801 136.469 138.454 142.066 138.433Z" fill="#D2D3D2"/>
<path d="M142.066 138.433C145.773 138.42 156.476 140.136 160.464 143.377C162.829 145.297 163.153 148.811 159.933 150.524C155.428 152.92 146.658 153.26 141.517 153.271C136.202 153.281 118.663 151.018 121.266 143.855C123.102 138.801 136.469 138.454 142.066 138.433Z" stroke="#1A1919" stroke-width="1.02709" stroke-linecap="round" stroke-linejoin="round"/>
<path d="M143.055 157.761C138.383 157.761 123.231 156.416 124.909 148.418C125.406 146.045 129.604 145.214 132.014 144.797C138.346 143.701 142.689 145.048 149.078 145.798C152.13 146.157 157.819 148.57 158.667 151.09C159.353 153.133 159.435 156.491 157.379 157.522C154.5 158.963 146.307 157.761 143.055 157.761Z" fill="#C8A372"/>
<path d="M143.055 157.761C138.383 157.761 123.231 156.416 124.909 148.418C125.406 146.045 129.604 145.214 132.014 144.797C138.346 143.701 142.689 145.048 149.078 145.798C152.13 146.157 157.819 148.57 158.667 151.09C159.353 153.133 159.435 156.491 157.379 157.522C154.5 158.963 146.307 157.761 143.055 157.761Z" stroke="#1A1919" stroke-width="1.02709" stroke-linecap="round" stroke-linejoin="round"/>
<path d="M141.933 148.587C140.686 148.642 137.813 149.637 137.215 149.616C134.323 149.523 135.301 146.575 135.428 144.827C136.433 144.749 137.844 144.09 138.788 144.165C140.932 144.333 146.608 145.936 145.381 148.443C144.237 148.531 143.087 148.536 141.933 148.587Z" fill="#D0B081"/>
<path d="M141.933 148.587C140.686 148.642 137.813 149.637 137.215 149.616C134.323 149.523 135.301 146.575 135.428 144.827C136.433 144.749 137.844 144.09 138.788 144.165C140.932 144.333 146.608 145.936 145.381 148.443C144.237 148.531 143.087 148.536 141.933 148.587Z" stroke="#1A1919" stroke-width="1.02709" stroke-linecap="round" stroke-linejoin="round"/>
<path d="M147.659 151.024C148.144 149.225 149.811 146.695 151.046 145.058C152.604 145.526 154.519 146.022 155.937 146.523C154.737 147.486 155.382 150.988 154.292 151.609C153.051 152.32 148.941 150.78 147.351 150.775" fill="#8E8876"/>
<path d="M147.659 151.024C148.144 149.225 149.811 146.695 151.046 145.058C152.604 145.526 154.519 146.022 155.937 146.523C154.737 147.486 155.382 150.988 154.292 151.609C153.051 152.32 148.941 150.78 147.351 150.775" stroke="#1A1919" stroke-width="1.02709" stroke-linecap="round" stroke-linejoin="round"/>
<path d="M123.36 147.907C126.841 144.54 135.694 147.87 136.254 151.734C136.225 151.551 131.975 152.952 131.39 152.77C129.37 152.141 125.08 152.707 123.36 147.907Z" fill="#C28B6B"/>
<path d="M123.36 147.907C126.841 144.54 135.694 147.87 136.254 151.734C136.225 151.551 131.975 152.952 131.39 152.77C129.37 152.141 125.08 152.707 123.36 147.907Z" stroke="#1A1919" stroke-width="1.02709" stroke-linecap="round" stroke-linejoin="round"/>
<path d="M142.453 147.963C142.458 147.951 143.902 150.997 143.938 151.625C144.025 153.108 143.562 154.402 142.77 155.628C141.25 157.974 139.236 158.765 136.513 158.534C138.184 157.22 140.232 155.847 141.215 153.862C142.083 152.109 141.624 149.806 142.453 147.963Z" fill="#F4BE8A"/>
<path d="M142.453 147.963C142.458 147.951 143.902 150.997 143.938 151.625C144.025 153.108 143.562 154.402 142.77 155.628C141.25 157.974 139.236 158.765 136.513 158.534C138.184 157.22 140.232 155.847 141.215 153.862C142.083 152.109 141.624 149.806 142.453 147.963Z" stroke="#1A1919" stroke-width="1.02709" stroke-linecap="round" stroke-linejoin="round"/>
<path d="M147.14 149.579C149.296 151.84 148.56 156.217 146.09 157.973C145.172 158.625 143.091 159.098 141.993 159.403C140.98 159.686 138.318 159.401 137.742 159.74C139.986 158.421 142.781 157.441 144.619 155.516C145.403 154.695 148.123 150.607 147.14 149.579Z" fill="#F2B286"/>
<path d="M147.14 149.579C149.296 151.84 148.56 156.217 146.09 157.973C145.172 158.625 143.091 159.098 141.993 159.403C140.98 159.686 138.318 159.401 137.742 159.74C139.986 158.421 142.781 157.441 144.619 155.516C145.403 154.695 148.123 150.607 147.14 149.579Z" stroke="#1A1919" stroke-width="1.02709" stroke-linecap="round" stroke-linejoin="round"/>
<path d="M121.261 145.535C120.317 153.162 124.807 160.332 131.891 164.389C137.598 167.658 146.237 168.165 151.655 165.674C159.174 162.217 162.754 155.268 162.409 147.202C152.594 160.924 127.403 155.262 121.261 145.535Z" fill="#F8F7F6"/>
<path d="M121.261 145.535C120.317 153.162 124.807 160.332 131.891 164.389C137.598 167.658 146.237 168.165 151.655 165.674C159.174 162.217 162.754 155.268 162.409 147.202C152.594 160.924 127.403 155.262 121.261 145.535Z" stroke="#1A1919" stroke-width="1.02709" stroke-linecap="round" stroke-linejoin="round"/>
<path d="M54.3802 164.974L57.8891 148.606L112.134 148.374L113.539 163.803L54.3802 164.974Z" fill="#F8F7F6"/>
<path d="M54.3802 164.974L57.8891 148.606L112.134 148.374L113.539 163.803L54.3802 164.974Z" stroke="#1A1919" stroke-width="1.02709" stroke-linecap="round" stroke-linejoin="round"/>
<path d="M82.5706 142.403C86.5406 142.256 92.6492 141.878 96.2725 144.487C102.505 145.501 104.577 146.656 108.183 151.473C113.736 158.889 102.825 162.184 99.0422 162.171C94.9488 162.155 77.9772 160.6 66.8206 160.334C61.0709 160.197 58.6172 156.681 60.3532 151.632C61.9994 146.852 65.3372 144.884 70.1915 143.932C72.9348 143.393 81.58 142.44 82.5706 142.403Z" fill="#F3D5A4"/>
<path d="M82.5706 142.403C86.5406 142.256 92.3593 141.298 96.4175 144.487C101.49 145.067 107.963 147.871 106.059 152.459C104.649 155.854 100.976 155.837 97.8702 156.323C95.558 156.686 92.947 154.935 90.4243 154.473C89.0182 154.217 88.4358 153.357 86.7669 153.626C83.7393 154.119 81.5167 156.202 78.0961 156.187C75.3218 156.174 73.3744 154.788 70.9219 154.4C68.151 153.962 60.7085 156.703 60.1457 152.413C59.5343 147.755 66.6645 144.625 70.1927 143.932C72.9348 143.393 81.58 142.44 82.5706 142.403Z" fill="#DAAB80"/>
<path d="M96.1276 144.776C94.342 147.435 93.427 149.893 93.427 152.578M84.0733 142.995C88.515 141.362 94.3602 142.757 96.2329 144.627C102.939 144.921 105.838 146.95 108.183 151.473C112.448 159.698 104.302 161.232 98.8076 161.232C91.4468 161.232 74.6653 160.522 66.8206 160.334C61.0709 160.197 58.6172 156.681 60.3532 151.632C61.9994 146.852 67.2394 142.523 73.3177 143.694C76.1223 142.057 82.9013 141.595 84.0733 142.995ZM74.4897 143.228C71.7857 144.298 70.3468 149.677 70.0475 152.111L74.4897 143.228ZM84.7777 142.757C81.9684 144.627 81.2868 149.41 81.2684 152.111L84.7777 142.757Z" stroke="#1A1919" stroke-width="1.02709" stroke-linecap="round" stroke-linejoin="round"/>
<path d="M70.1067 180.835C70.7475 176.046 70.769 172.488 70.1656 167.667C69.504 162.364 69.2777 155.953 65.7449 150.871C67.0788 148.663 66.6271 147.556 66.1889 144.903C65.7145 142.032 59.7802 141.364 57.3468 142.254C54.1187 143.431 53.1505 147.335 55.3586 151.095C52.9322 153.965 52.7022 160.579 51.9674 167.578C51.7377 169.76 51.6536 177.017 52.8109 180.831C53.3228 182.519 53.9206 184.079 54.9112 184.889C58.9604 188.204 65.2241 187.834 67.9597 185.119C68.988 184.096 69.862 182.654 70.1067 180.835Z" fill="#FFFFFE"/>
<path d="M52.8324 161.804C52.7077 163.274 52.3411 163.648 52.3411 164.872C57.3729 170.52 67.072 169.05 69.5267 165.241C69.5279 162.538 69.4032 163.158 68.9131 161.684C67.0674 166.346 57.006 167.323 52.8324 161.804Z" fill="#BC6B5E"/>
<path d="M70.1404 181.2C70.6682 177.638 70.1156 171.655 69.8957 166.715C69.6221 160.568 69.2776 155.953 65.7449 150.871C67.0787 148.663 66.627 147.556 66.1889 144.903C65.7144 142.032 59.7802 141.364 57.3468 142.254C54.1186 143.431 53.1505 147.335 55.3585 151.095C52.9321 153.965 52.2075 159.922 52.2188 166.96C52.2232 170.761 52.2188 176.29 52.7101 181.2C52.8845 182.956 53.9691 184.024 54.9112 184.889C58.111 187.829 65.2241 187.834 67.9597 185.119C68.988 184.096 69.8733 183.016 70.1404 181.2Z" stroke="#1A1919" stroke-width="1.02709" stroke-linecap="round" stroke-linejoin="round"/>
<path d="M66.463 150.073C67.7331 148.218 68.415 144.804 65.8355 143.086C63.1134 141.274 57.0659 141.467 55.0131 143.28C52.7532 145.276 53.1505 147.779 54.2568 150.431C53.8107 152.897 50.7705 154.388 51.2007 157.241C52.1283 157.621 53.616 155.755 54.4764 156.172C55.9675 156.895 55.0334 159.383 57.1282 159.267C58.2265 159.209 59.2729 157.244 60.4426 157.059C62.0018 156.815 63.1542 159.136 64.6388 158.824C64.6149 157.461 65.3497 156.186 66.6271 156.172C67.9754 156.158 70.4506 157.9 69.7216 155.953C69.0013 154.028 68.9267 153.521 66.463 150.073Z" fill="#EDB3AF"/>
<path d="M66.463 150.073C67.7331 148.218 68.415 144.804 65.8355 143.086C63.1134 141.274 57.0659 141.467 55.0131 143.28C52.7532 145.276 53.1505 147.779 54.2568 150.431C53.8107 152.897 50.7705 154.388 51.2007 157.241C52.1283 157.621 53.616 155.755 54.4764 156.172C55.9675 156.895 55.0334 159.383 57.1282 159.267C58.2265 159.209 59.2729 157.244 60.4426 157.059C62.0018 156.815 63.1542 159.136 64.6388 158.824C64.6149 157.461 65.3497 156.186 66.6271 156.172C67.9754 156.158 70.4506 157.9 69.7216 155.953C69.0013 154.028 68.9267 153.521 66.463 150.073Z" stroke="#1A1919" stroke-width="1.02709" stroke-linecap="round" stroke-linejoin="round"/>
<path d="M65.4483 144.439C66.009 141.355 56.1569 140.773 55.7876 143.472C55.4209 146.142 64.5584 146.339 65.4483 144.439Z" fill="#F4C2AC"/>
<path d="M65.4483 144.439C66.009 141.355 56.1569 140.773 55.7876 143.472C55.4209 146.142 64.5584 146.339 65.4483 144.439Z" stroke="#1A1919" stroke-width="1.02709" stroke-linecap="round" stroke-linejoin="round"/>
<path d="M54.2568 149.987C57.1205 152.476 62.7694 153.461 66.4072 150.206C66.4742 149.987 65.9215 150.866 65.9669 150.651" fill="#EDB3AF"/>
<path d="M54.2568 149.987C57.1205 152.476 62.7694 153.461 66.4072 150.206C66.4742 149.987 65.9215 150.866 65.9669 150.651" stroke="#1A1919" stroke-width="1.02709" stroke-linecap="round" stroke-linejoin="round"/>
<path d="M107.637 190.295C89.7244 189.892 67.8556 187.491 72.2611 174.472C74.0039 169.329 86.9864 165.384 108.101 164.895C130.902 164.365 144.489 168.679 146.649 175.205C150.626 187.23 123.118 190.643 107.637 190.295Z" fill="#F8F7F6"/>
<path d="M107.637 190.295C89.7244 189.892 67.8556 187.491 72.2611 174.472C74.0039 169.329 86.9864 165.384 108.101 164.895C130.902 164.365 144.489 168.679 146.649 175.205C150.626 187.23 123.118 190.643 107.637 190.295Z" stroke="#1A1919" stroke-width="1.02709" stroke-linecap="round" stroke-linejoin="round"/>
<path d="M93.863 180.971C91.7717 179.843 89.4008 178.396 88.7032 175.572C88.3998 174.337 88.1382 173.018 89.5617 170.047C90.696 167.682 94.7937 164.308 98.5269 163.785C103.606 163.067 108.17 161.838 113.262 162.472C116.75 162.904 120.348 164.023 123.815 164.526C127.436 165.049 130.097 166.561 132.657 168.333C135.049 169.987 139.07 174.859 138.795 176.681C138.186 180.736 133.621 179.737 130.813 180.36C123.462 181.987 117.498 180.664 108.559 180.57C104.738 180.53 103.541 183.628 100.736 181.712C98.7898 180.378 95.9769 182.108 93.863 180.971Z" fill="#F7DE8E"/>
<path d="M93.863 180.971C91.7717 179.843 89.4008 178.396 88.7032 175.572C88.3998 174.337 88.1382 173.018 89.5617 170.047C90.696 167.682 94.7937 164.308 98.5269 163.785C103.606 163.067 108.17 161.838 113.262 162.472C116.75 162.904 120.348 164.023 123.815 164.526C127.436 165.049 130.097 166.561 132.657 168.333C135.049 169.987 139.07 174.859 138.795 176.681C138.186 180.736 133.621 179.737 130.813 180.36C123.462 181.987 117.498 180.664 108.559 180.57C104.738 180.53 103.541 183.628 100.736 181.712C98.7898 180.378 95.9769 182.108 93.863 180.971Z" stroke="#1A1919" stroke-width="1.02709" stroke-linecap="round" stroke-linejoin="round"/>
<path d="M112.51 169.306C111.936 167.585 110.651 163.851 108.509 163.537C106.672 163.27 106.272 166.168 105.158 167.103C103.046 168.876 104.045 169.5 101.697 165.665C100.661 163.976 98.6547 165.085 97.9042 167.095C98.2583 166.147 102.004 172.163 102.172 172.339C103.106 173.307 104.245 174.128 105.696 173.641C107.281 173.108 107.293 170.269 109.037 170.364C110.974 170.471 110.828 174.019 112.024 175.176C113.875 174.032 116.193 168.106 119.302 169.593C119.465 171.069 117.846 174.044 121.424 173.811C124.55 173.609 126.27 171.671 127.005 170.418C127.839 168.994 128.393 168.161 127.885 166.464C125.482 168.325 122.723 167.799 121.634 166.822C120.751 166.028 120.72 164.243 119.221 164.106C117.292 163.927 116.444 164.804 115.4 165.68C114.431 166.49 113.793 169.104 112.51 169.306Z" fill="#E07A6A"/>
<path d="M112.51 169.306C111.936 167.585 110.651 163.851 108.509 163.537C106.672 163.27 106.272 166.168 105.158 167.103C103.046 168.876 104.045 169.5 101.697 165.665C100.661 163.976 98.6547 165.085 97.9042 167.095C98.2583 166.147 102.004 172.163 102.172 172.339C103.106 173.307 104.245 174.128 105.696 173.641C107.281 173.108 107.293 170.269 109.037 170.364C110.974 170.471 110.828 174.019 112.024 175.176C113.875 174.032 116.193 168.106 119.302 169.593C119.465 171.069 117.846 174.044 121.424 173.811C124.55 173.609 126.27 171.671 127.005 170.418C127.839 168.994 128.393 168.161 127.885 166.464C125.482 168.325 122.723 167.799 121.634 166.822C120.751 166.028 120.72 164.243 119.221 164.106C117.292 163.927 116.444 164.804 115.4 165.68C114.431 166.49 113.793 169.104 112.51 169.306Z" stroke="#1A1919" stroke-width="1.02709" stroke-linecap="round" stroke-linejoin="round"/>
<path d="M85.363 171.517C86.3956 172.234 86.2937 173.709 86.3423 174.859C86.3843 175.86 89.3032 174.267 88.008 176.924C87.6638 177.631 86.1171 178.023 86.3729 178.754C86.6493 179.549 87.0884 181.351 85.9019 181.884C84.5975 182.468 83.4313 181.096 82.7518 180.424C82.0544 180.915 81.0399 180.944 80.1635 180.713C80.092 179.925 80.3991 179.165 80.2959 178.387C79.543 178.086 78.7729 178.034 78.0212 177.893C77.9647 176.846 77.7859 175.447 78.9521 174.765C79.4082 174.499 80.3266 174.573 80.6549 174.353C81.2358 173.968 81.0298 173.771 81.2257 173.127C81.5131 172.173 82.2131 171.09 83.6373 171.084C84.4219 171.079 84.9734 171.245 85.363 171.517Z" fill="#90BD84"/>
<path d="M85.363 171.517C86.3956 172.234 86.2937 173.709 86.3423 174.859C86.3843 175.86 89.3032 174.267 88.008 176.924C87.6638 177.631 86.1171 178.023 86.3729 178.754C86.6493 179.549 87.0884 181.351 85.9019 181.884C84.5975 182.468 83.4313 181.096 82.7518 180.424C82.0544 180.915 81.0399 180.944 80.1635 180.713C80.092 179.925 80.3991 179.165 80.2959 178.387C79.543 178.086 78.7729 178.034 78.0212 177.893C77.9647 176.846 77.7859 175.447 78.9521 174.765C79.4082 174.499 80.3266 174.573 80.6549 174.353C81.2358 173.968 81.0298 173.771 81.2257 173.127C81.5131 172.173 82.2131 171.09 83.6373 171.084C84.4219 171.079 84.9734 171.245 85.363 171.517Z" stroke="#1A1919" stroke-width="1.02709" stroke-linecap="round" stroke-linejoin="round"/>
<path d="M90.56 173.881C91.5905 174.599 91.4909 176.075 91.5373 177.225C91.5791 178.224 94.4993 176.632 93.2053 179.289C92.8586 179.996 91.3141 180.387 91.569 181.119C91.8441 181.913 92.2835 183.716 91.0979 184.247C89.7926 184.834 88.6261 183.46 87.9481 182.79C87.2517 183.28 86.9845 184.66 86.2485 185.641C85.5147 186.621 82.6863 185.037 83.3044 183.43C84.7741 182.447 83.06 181.222 82.8095 179.747C82.7542 178.7 82.9829 177.812 84.1479 177.13C84.6042 176.864 85.5214 176.938 85.8521 176.718C86.4316 176.333 86.2258 176.136 86.4215 175.492C86.7104 174.537 87.408 173.454 88.8346 173.448C89.6182 173.444 90.1682 173.609 90.56 173.881Z" fill="#90BD84"/>
<path d="M90.56 173.881C91.5905 174.599 91.4909 176.075 91.5373 177.225C91.5791 178.224 94.4993 176.632 93.2053 179.289C92.8586 179.996 91.3141 180.387 91.569 181.119C91.8441 181.913 92.2835 183.716 91.0979 184.247C89.7926 184.834 88.6261 183.46 87.9481 182.79C87.2517 183.28 86.9845 184.66 86.2485 185.641C85.5147 186.621 82.6863 185.037 83.3044 183.43C84.7741 182.447 83.06 181.222 82.8095 179.747C82.7542 178.7 82.9829 177.812 84.1479 177.13C84.6042 176.864 85.5214 176.938 85.8521 176.718C86.4316 176.333 86.2258 176.136 86.4215 175.492C86.7104 174.537 87.408 173.454 88.8346 173.448C89.6182 173.444 90.1682 173.609 90.56 173.881Z" stroke="#1A1919" stroke-width="1.02709" stroke-linecap="round" stroke-linejoin="round"/>
<path d="M92.9414 176.739C94.984 176.845 97.3063 177.324 98.4885 178.731C99.4598 179.888 100.364 181.615 100.164 183.184C100.126 183.494 98.8438 187.112 98.8462 187.112C97.2271 187.781 95.7212 187.276 95.1753 185.633C93.2084 185.424 89.4616 189.066 89.5964 184.629C89.6203 183.863 90.3155 183.311 90.1887 182.509C90.0484 181.615 89.1867 181.725 89.0123 180.962C88.5253 178.829 89.8737 179.283 91.3097 178.803C91.1759 178.111 90.9665 177.468 90.9882 176.74C91.5677 176.71 92.2383 176.702 92.9414 176.739Z" fill="#90BD84"/>
<path d="M92.9414 176.739C94.984 176.845 97.3063 177.324 98.4885 178.731C99.4598 179.888 100.364 181.615 100.164 183.184C100.126 183.494 98.8438 187.112 98.8462 187.112C97.2271 187.781 95.7212 187.276 95.1753 185.633C93.2084 185.424 89.4616 189.066 89.5964 184.629C89.6203 183.863 90.3155 183.311 90.1887 182.509C90.0484 181.615 89.1867 181.725 89.0123 180.962C88.5253 178.829 89.8737 179.283 91.3097 178.803C91.1759 178.111 90.9665 177.468 90.9882 176.74C91.5677 176.71 92.2383 176.702 92.9414 176.739Z" stroke="#1A1919" stroke-width="1.02709" stroke-linecap="round" stroke-linejoin="round"/>
<path d="M108.099 180.727C111.571 179.972 111.605 179.805 112.769 183.181C112.717 183.025 105.264 185.024 104.42 184.9C103.106 184.708 99.675 182.236 100.001 180.727C100.478 178.52 106.301 181.116 108.099 180.727Z" fill="#DEE1BB"/>
<path d="M108.099 180.727C111.571 179.972 111.605 179.805 112.769 183.181C112.717 183.025 105.264 185.024 104.42 184.9C103.106 184.708 99.675 182.236 100.001 180.727C100.478 178.52 106.301 181.116 108.099 180.727Z" stroke="#1A1919" stroke-width="1.02709" stroke-linecap="round" stroke-linejoin="round"/>
<path d="M101.471 178.276C102.817 178.486 103.156 178.521 103.925 179.499C104.596 180.352 106.414 178.845 106.985 181.664C107.137 182.414 106.05 183.367 106.734 183.901C107.477 184.483 108.997 185.868 108.313 186.802C107.56 187.832 105.684 187.104 104.673 186.793C104.381 187.498 103.527 187.926 102.623 188.073C102.062 187.418 101.847 186.641 101.263 186.005C100.422 186.042 99.726 186.305 98.9866 186.484C98.2755 185.598 97.2337 184.454 97.8066 183.4C98.031 182.987 98.869 182.685 99.0137 182.365C99.2709 181.8 98.9661 181.711 98.7284 181.075C98.3728 180.132 98.2868 178.915 99.512 178.342C100.186 178.027 100.964 178.195 101.471 178.276Z" fill="#90BD84"/>
<path d="M101.471 178.276C102.817 178.486 103.156 178.521 103.925 179.499C104.596 180.352 106.414 178.845 106.985 181.664C107.137 182.414 106.05 183.367 106.734 183.901C107.477 184.483 108.997 185.868 108.313 186.802C107.56 187.832 105.684 187.104 104.673 186.793C104.381 187.498 103.527 187.926 102.623 188.073C102.062 187.418 101.847 186.641 101.263 186.005C100.422 186.042 99.726 186.305 98.9866 186.484C98.2755 185.598 97.2337 184.454 97.8066 183.4C98.031 182.987 98.869 182.685 99.0137 182.365C99.2709 181.8 98.9661 181.711 98.7284 181.075C98.3728 180.132 98.2868 178.915 99.512 178.342C100.186 178.027 100.964 178.195 101.471 178.276Z" stroke="#1A1919" stroke-width="1.02709" stroke-linecap="round" stroke-linejoin="round"/>
<path d="M118.575 181.135C119.443 183.016 118.851 185.432 116.161 186.039C113.903 186.551 112.126 186.728 110.955 185.594C108.663 183.366 110.441 179.331 113.156 178.927C115.443 178.587 117.807 179.47 118.575 181.135Z" fill="#CB7A64"/>
<path d="M118.575 181.135C119.443 183.016 118.851 185.432 116.161 186.039C113.903 186.551 112.126 186.728 110.955 185.594C108.663 183.366 110.441 179.331 113.156 178.927C115.443 178.587 117.807 179.47 118.575 181.135Z" stroke="#1A1919" stroke-width="1.02709" stroke-linecap="round" stroke-linejoin="round"/>
<path d="M124.704 180.54C125.572 182.42 124.981 184.837 122.29 185.445C120.031 185.955 118.256 186.133 117.084 184.999C114.791 182.77 116.57 178.736 119.286 178.332C121.572 177.991 123.938 178.874 124.704 180.54Z" fill="#CB7A64"/>
<path d="M124.704 180.54C125.572 182.42 124.981 184.837 122.29 185.445C120.031 185.955 118.256 186.133 117.084 184.999C114.791 182.77 116.57 178.736 119.286 178.332C121.572 177.991 123.938 178.874 124.704 180.54Z" stroke="#1A1919" stroke-width="1.02709" stroke-linecap="round" stroke-linejoin="round"/>
<path d="M163.776 188.633C159.017 189.522 148.97 191.201 139.619 188.677C136.847 187.931 126.14 183.438 128 181.056C130.088 178.382 137.052 178.872 139.912 178.682C143.234 178.459 148.433 178.897 151.751 178.673C155.295 178.435 167.556 176.958 172.03 174.949C175.051 173.588 177.221 170.16 178.037 166.711C179.238 166.587 181.525 168.046 182.042 169.291C180.25 172.884 176.452 174.598 176.151 178.607C175.665 185 168.916 187.667 163.776 188.633Z" fill="#FDDF89"/>
<path d="M174.006 183.967C173.078 185.03 172.105 185.417 170.747 185.281C170.89 183.41 173.177 182.402 172.778 180.207C171.01 179.828 168.95 180.928 167.001 180.831C167.305 179.282 169.01 178.779 169.991 177.874C168.31 177.778 166.179 178.189 164.865 177.024C166.824 174.734 170.609 176.096 173.008 174.442C175.622 172.638 177.312 169.775 178.037 166.711C179.238 166.587 181.525 168.046 182.042 169.291C180.25 172.884 176.453 174.598 176.151 178.607C176.035 180.111 175.3 182.485 174.006 183.967Z" fill="#E0D387"/>
<path d="M136.348 183.126C148.547 186.549 163.752 184.694 169.979 180.337M163.776 188.633C159.017 189.522 148.97 191.201 139.619 188.677C136.847 187.931 126.14 183.438 128 181.056C130.088 178.382 137.052 178.872 139.912 178.682C143.234 178.459 148.433 178.897 151.751 178.673C155.295 178.435 167.556 176.958 172.03 174.949C175.051 173.588 177.221 170.16 178.037 166.711C179.238 166.587 181.525 168.046 182.042 169.291C180.25 172.884 176.452 174.598 176.151 178.607C175.665 185 168.916 187.667 163.776 188.633Z" stroke="#1A1919" stroke-width="1.02709" stroke-linecap="round" stroke-linejoin="round"/>
</svg>
