<svg width="160" height="151" viewBox="0 0 160 151" fill="none" xmlns="http://www.w3.org/2000/svg">
<path d="M159.744 150.204H51.9463V150.669H159.744V150.204Z" fill="#3F3D56"/>
<path d="M139.627 71.1414C139.834 71.3852 139.988 71.6699 140.079 71.977C140.169 72.2841 140.194 72.6068 140.152 72.9242C140.11 73.2415 140.002 73.5465 139.834 73.8194C139.666 74.0922 139.444 74.3269 139.18 74.5081L128.023 82.1676L123.111 85.4426C122.832 85.6286 122.493 85.7042 122.162 85.6546C121.83 85.6049 121.529 85.4337 121.316 85.1741C121.193 85.0228 121.103 84.8464 121.054 84.6571C121.005 84.4678 120.998 84.2701 121.033 84.0778C121.068 83.8854 121.144 83.7029 121.256 83.5429C121.369 83.3828 121.514 83.2491 121.684 83.1509L126.442 80.3882L134.746 72.4795L129.407 66.7458L133.362 63.78L139.627 71.1414Z" fill="#A0616A"/>
<path d="M113.392 143.262H110.663L109.043 120.722L115.963 120.524L113.392 143.262Z" fill="#A0616A"/>
<path d="M113.59 150.577C112.862 150.909 112.253 148.219 111.639 148.822C109.922 150.509 107.293 150.877 105.002 150.14L105.804 150.131C105.665 150.086 105.538 150.014 105.428 149.919C105.318 149.824 105.229 149.707 105.166 149.576C105.103 149.446 105.067 149.303 105.06 149.158C105.053 149.013 105.076 148.868 105.127 148.732C105.188 148.57 105.288 148.424 105.418 148.308C105.547 148.193 105.703 148.11 105.872 148.068L107.698 147.612L110.565 142.57L113.491 142.372C114.144 143.204 114.599 144.173 114.823 145.206C115.047 146.239 115.034 147.31 114.785 148.337C114.519 149.421 114.109 150.341 113.59 150.577Z" fill="#2F2E41"/>
<path d="M131.563 143.262H128.834L127.213 120.722L134.331 119.338L131.563 143.262Z" fill="#A0616A"/>
<path d="M131.76 150.577C131.033 150.909 130.423 148.219 129.809 148.822C128.093 150.509 125.464 150.877 123.172 150.14L123.974 150.131C123.836 150.086 123.708 150.014 123.598 149.919C123.489 149.824 123.4 149.707 123.336 149.576C123.273 149.446 123.237 149.303 123.23 149.158C123.224 149.013 123.247 148.868 123.298 148.732C123.359 148.57 123.458 148.424 123.588 148.308C123.718 148.193 123.874 148.11 124.042 148.068L125.868 147.612L128.735 142.57L131.859 142.174L131.938 142.303C132.542 143.277 132.932 144.368 133.081 145.504C133.229 146.64 133.134 147.794 132.802 148.891C132.542 149.723 132.188 150.382 131.76 150.577Z" fill="#2F2E41"/>
<path d="M134.657 64.2898C132.147 64.639 130.41 66.0134 129.702 68.755L125.089 60.2379C124.816 59.6967 124.747 59.0749 124.894 58.4867C125.042 57.8985 125.396 57.3832 125.893 57.0351C126.42 56.6658 127.069 56.5119 127.706 56.6052C128.342 56.6984 128.92 57.0316 129.319 57.5366L134.657 64.2898Z" fill="#F4BE8A"/>
<path d="M139.491 118.35C128.275 123.312 116.797 123.923 105.088 120.722C109.364 104.14 114.412 89.1461 114.381 76.8293L125.849 75.8407L127.614 78.6399C131.803 85.2812 134.695 92.6567 136.136 100.375L139.491 118.35Z" fill="#2F2E41"/>
<path d="M120.708 51.3239C123.984 51.3239 126.639 48.6683 126.639 45.3924C126.639 42.1165 123.984 39.4609 120.708 39.4609C117.432 39.4609 114.776 42.1165 114.776 45.3924C114.776 48.6683 117.432 51.3239 120.708 51.3239Z" fill="#A0616A"/>
<path d="M127.232 55.8713L119.917 56.2668L118.731 49.7421L124.662 48.7537L127.232 55.8713Z" fill="#A0616A"/>
<path d="M126.442 76.8292L118.427 77.055L114.381 77.6201C112.395 71.0593 110.723 64.5136 114.777 59.0348L119.522 54.2896L126.639 54.0919L126.734 54.1458C127.864 54.7934 128.74 55.8068 129.218 57.0189C129.695 58.2311 129.745 59.5697 129.36 60.8141C127.593 66.554 126.459 71.9743 126.442 76.8292Z" fill="#F4BE8A"/>
<path d="M114.183 95.2168L113.686 102.011C113.66 102.375 113.502 102.717 113.243 102.974C112.985 103.231 112.642 103.386 112.278 103.411C112.068 103.425 111.857 103.395 111.66 103.323C111.462 103.251 111.282 103.139 111.13 102.993C110.978 102.848 110.858 102.672 110.778 102.478C110.698 102.284 110.659 102.075 110.664 101.865L110.822 95.2168L115.765 76.4338L115.963 64.9663L121.499 64.7686L121.103 78.0155L114.183 95.2168Z" fill="#A0616A"/>
<path d="M122.092 65.7572C119.745 64.8027 117.553 65.1224 115.567 67.1412L115.839 57.4589C115.874 56.8534 116.125 56.2806 116.547 55.8453C116.969 55.4101 117.534 55.1416 118.139 55.089C118.78 55.0333 119.418 55.2248 119.923 55.6244C120.427 56.024 120.76 56.6015 120.853 57.2384L122.092 65.7572Z" fill="#F4BE8A"/>
<path d="M133.263 71.7875H115.073C119.316 60.551 120.685 50.0978 115.073 41.1416C115.169 38.4515 118.62 36.1195 121.299 36.3772C124.463 36.6814 128.716 39.0069 129.309 42.1301L133.263 71.7875Z" fill="#2F2E41"/>
<path d="M75.2926 35.8832H74.4629V13.1547C74.4629 11.4272 74.1227 9.7166 73.4616 8.12059C72.8005 6.52459 71.8315 5.07443 70.61 3.8529C69.3885 2.63138 67.9383 1.66241 66.3423 1.00133C64.7463 0.340246 63.0357 -5.17684e-06 61.3082 0H13.1547C11.4272 -3.8145e-06 9.71662 0.34025 8.12061 1.00133C6.52461 1.66242 5.07445 2.63138 3.85292 3.85291C2.63139 5.07443 1.66242 6.5246 1.00134 8.1206C0.340253 9.7166 -1.90727e-06 11.4272 0 13.1547V137.845C-1.36234e-06 139.573 0.340253 141.283 1.00134 142.879C1.66242 144.475 2.63139 145.926 3.85292 147.147C5.07445 148.369 6.52461 149.338 8.12061 149.999C9.71662 150.66 11.4272 151 13.1547 151H61.3082C63.0357 151 64.7463 150.66 66.3423 149.999C67.9383 149.338 69.3885 148.369 70.61 147.147C71.8315 145.926 72.8005 144.475 73.4616 142.879C74.1227 141.283 74.4629 139.573 74.4629 137.845V52.0618H75.2926V35.8832Z" fill="#3F3D56"/>
<path d="M61.839 3.42242H55.5533C55.8424 4.13111 55.9527 4.9 55.8746 5.66137C55.7965 6.42274 55.5324 7.15322 55.1055 7.78846C54.6786 8.4237 54.102 8.9442 53.4265 9.30412C52.7511 9.66403 51.9975 9.85231 51.2321 9.85237H23.6456C22.8802 9.85231 22.1266 9.66403 21.4511 9.30412C20.7757 8.9442 20.1991 8.4237 19.7722 7.78846C19.3453 7.15322 19.0811 6.42274 19.003 5.66137C18.9249 4.9 19.0353 4.13111 19.3243 3.42242H13.4535C12.1635 3.42242 10.886 3.67652 9.69414 4.17021C8.50227 4.6639 7.4193 5.38751 6.50708 6.29973C5.59486 7.21195 4.87125 8.29491 4.37755 9.48678C3.88386 10.6787 3.62976 11.9561 3.62976 13.2462V137.754C3.62976 139.044 3.88386 140.321 4.37755 141.513C4.87124 142.705 5.59486 143.788 6.50708 144.7C7.4193 145.613 8.50227 146.336 9.69414 146.83C10.886 147.324 12.1635 147.578 13.4535 147.578H61.839C63.129 147.578 64.4065 147.324 65.5984 146.83C66.7902 146.336 67.8732 145.613 68.7854 144.7C69.6976 143.788 70.4213 142.705 70.9149 141.513C71.4086 140.321 71.6627 139.044 71.6627 137.754V13.2462C71.6627 10.6407 70.6277 8.14204 68.7854 6.29973C66.9431 4.45742 64.4444 3.42242 61.839 3.42242Z" fill="white"/>
<path d="M63.1665 22.8714H12.1262V66.6499H63.1665V22.8714Z" fill="#E6E6E6"/>
<path d="M27.2723 75.779C29.3348 75.779 31.0069 74.1069 31.0069 72.0443C31.0069 69.9818 29.3348 68.3097 27.2723 68.3097C25.2097 68.3097 23.5376 69.9818 23.5376 72.0443C23.5376 74.1069 25.2097 75.779 27.2723 75.779Z" fill="#F4BE8A"/>
<path d="M29.1396 71.7332H27.5835V70.1771H26.961V71.7332H25.4049V72.3556H26.961V73.9117H27.5835V72.3556H29.1396V71.7332Z" fill="white"/>
<path d="M46.9829 75.779C49.0455 75.779 50.7176 74.1069 50.7176 72.0443C50.7176 69.9818 49.0455 68.3097 46.9829 68.3097C44.9204 68.3097 43.2483 69.9818 43.2483 72.0443C43.2483 74.1069 44.9204 75.779 46.9829 75.779Z" fill="#F4BE8A"/>
<path d="M48.8503 72.3555V71.7331H45.1157V72.3555H48.8503Z" fill="white"/>
<path d="M39.5499 28.3312H35.5164C35.3746 28.3312 35.2386 28.3876 35.1383 28.4879C35.038 28.5882 34.9817 28.7242 34.9817 28.866V30.6364C34.9817 30.7782 35.038 30.9142 35.1383 31.0145C35.2386 31.1148 35.3746 31.1712 35.5164 31.1712H36.1848V33.8238H38.8815V31.1712H39.5499C39.6917 31.1712 39.8278 31.1148 39.928 31.0145C40.0283 30.9142 40.0847 30.7782 40.0847 30.6364V28.866C40.0847 28.7242 40.0283 28.5882 39.928 28.4879C39.8278 28.3876 39.6917 28.3312 39.5499 28.3312Z" fill="#F4BE8A"/>
<path d="M43.5899 44.534C41.1196 40.9194 39.8568 36.6157 39.9823 32.2394C39.9845 32.1385 39.9518 32.0398 39.8895 31.9603C39.8273 31.8807 39.7395 31.8251 39.6409 31.803V31.038H35.381V31.7924H35.3224C35.265 31.7925 35.2081 31.8038 35.1551 31.8259C35.1021 31.8479 35.054 31.8802 35.0134 31.9208C34.9729 31.9614 34.9408 32.0097 34.9189 32.0627C34.897 32.1158 34.8857 32.1727 34.8858 32.2301C34.8858 32.2407 34.8862 32.2513 34.887 32.2619C35.2226 36.94 34.0894 41.1353 31.4873 44.8477C31.3376 45.0611 31.2611 45.3172 31.2693 45.5778L31.7351 59.9862C31.7463 60.3076 31.8812 60.6122 32.1116 60.8365C32.342 61.0608 32.6501 61.1875 32.9717 61.19H42.6069C42.9321 61.1874 43.2435 61.0578 43.4746 60.829C43.7057 60.6002 43.8384 60.2901 43.8443 59.965L44.0238 45.9756C44.0291 45.4621 43.8777 44.9592 43.5899 44.534Z" fill="#3F3D56"/>
<path opacity="0.2" d="M38.7091 28.9081C38.7091 29.2141 38.5875 29.5075 38.3711 29.7239C38.1548 29.9402 37.8613 30.0618 37.5553 30.0618C37.2493 30.0618 36.9559 29.9402 36.7395 29.7239C36.5232 29.5075 36.4016 29.2141 36.4016 28.9081" fill="black"/>
<path d="M42.0645 49.32H40.8978C40.7864 48.5972 40.42 47.9381 39.8649 47.462C39.3097 46.9859 38.6025 46.7241 37.8712 46.7241C37.1399 46.7241 36.4327 46.9859 35.8775 47.462C35.3224 47.9381 34.956 48.5972 34.8446 49.32H33.6778C33.5537 49.32 33.431 49.3468 33.3182 49.3987C33.2054 49.4505 33.1052 49.5262 33.0243 49.6204C32.9435 49.7146 32.884 49.8252 32.8499 49.9446C32.8158 50.0639 32.8079 50.1893 32.8268 50.312L34.0941 58.5497H41.3714L42.9108 50.3397C42.9341 50.2154 42.9297 50.0874 42.898 49.9649C42.8662 49.8425 42.8079 49.7285 42.7271 49.6312C42.6463 49.5338 42.545 49.4554 42.4305 49.4017C42.316 49.3479 42.191 49.32 42.0645 49.32V49.32Z" fill="#F4BE8A"/>
<path d="M63.1665 84.4932H12.1262V128.272H63.1665V84.4932Z" fill="#E6E6E6"/>
<path d="M27.2723 137.401C29.3348 137.401 31.0069 135.729 31.0069 133.666C31.0069 131.604 29.3348 129.932 27.2723 129.932C25.2097 129.932 23.5376 131.604 23.5376 133.666C23.5376 135.729 25.2097 137.401 27.2723 137.401Z" fill="#F4BE8A"/>
<path d="M29.1396 133.355H27.5835V131.799H26.961V133.355H25.4049V133.977H26.961V135.534H27.5835V133.977H29.1396V133.355Z" fill="white"/>
<path d="M46.9829 137.401C49.0455 137.401 50.7176 135.729 50.7176 133.666C50.7176 131.604 49.0455 129.932 46.9829 129.932C44.9204 129.932 43.2483 131.604 43.2483 133.666C43.2483 135.729 44.9204 137.401 46.9829 137.401Z" fill="#F4BE8A"/>
<path d="M48.8503 133.977V133.355H45.1157V133.977H48.8503Z" fill="white"/>
<path d="M47.6942 115.594L47.7223 115.594C48.6833 115.602 49.6244 115.32 50.4229 114.786C51.2213 114.251 51.84 113.488 52.1983 112.596C53.3273 109.741 53.5917 106.617 52.9584 103.614C52.3252 100.61 50.8223 97.8585 48.637 95.7025C46.4517 93.5464 43.6804 92.0808 40.6682 91.4882C37.6561 90.8956 34.5362 91.202 31.6969 92.3695C28.8577 93.537 26.4246 95.5138 24.7006 98.0539C22.9766 100.594 22.0378 103.585 22.0012 106.655C21.9646 109.724 22.8318 112.737 24.4948 115.317C26.1577 117.898 28.543 119.932 31.3536 121.167C32.2272 121.554 33.1972 121.668 34.1365 121.493C35.0758 121.319 35.9406 120.865 36.6174 120.191C38.069 118.732 39.7952 117.574 41.6963 116.785C43.5974 115.996 45.6358 115.591 47.6942 115.594Z" fill="white"/>
<path d="M39.6558 110.857C42.5097 110.857 44.8233 108.544 44.8233 105.69C44.8233 102.836 42.5097 100.522 39.6558 100.522C36.8019 100.522 34.4883 102.836 34.4883 105.69C34.4883 108.544 36.8019 110.857 39.6558 110.857Z" fill="#F9A825"/>
</svg>
