<svg xmlns="http://www.w3.org/2000/svg" viewBox="0 0 48 48"><path fill="#211915" d="M31.46,3.25H16.54A4.8,4.8,0,0,0,11.75,8V41a4.8,4.8,0,0,0,4.79,4.79H31.46A4.8,4.8,0,0,0,36.25,41V8A4.8,4.8,0,0,0,31.46,3.25Zm3.29,6v28.5H13.25V9.25ZM16.54,4.75H31.46a3.28,3.28,0,0,1,3.26,3H13.28A3.28,3.28,0,0,1,16.54,4.75Zm14.92,39.5H16.54A3.3,3.3,0,0,1,13.25,41V39.25h21.5V41A3.3,3.3,0,0,1,31.46,44.25Z"/><path fill="#211915" d="M15.25,28H22.1l-2,3.5h2.09v5.06h3.66V31.45h2.09l-2-3.5h6.85v-5.5H15.25Zm9.17,2.1v5.06h-.84V30.05H22.5L24,27.46l1.5,2.59ZM16.75,24h14.5v2.5H25l-1-1.8-1,1.8H16.75Z"/><polygon fill="#211915" points="19.41 20.44 32.86 12.37 32.09 11.09 26 14.73 21.22 12.35 20.55 13.69 24.48 15.65 19.8 18.46 16.34 13.85 15.14 14.75 19.41 20.44"/><circle cx="24" cy="41.73" r="1.5" fill="#211915"/></svg>