<svg width="16" height="16" viewBox="0 0 16 16" fill="none" xmlns="http://www.w3.org/2000/svg">
<g clip-path="url(#clip0_188_67)">
<path fill-rule="evenodd" clip-rule="evenodd" d="M0.545898 4C0.545898 3.46957 0.74524 2.96086 1.10007 2.58579C1.4549 2.21071 1.93616 2 2.43796 2H13.7903C14.2921 2 14.7734 2.21071 15.1282 2.58579C15.4831 2.96086 15.6824 3.46957 15.6824 4V12C15.6824 12.5304 15.4831 13.0391 15.1282 13.4142C14.7734 13.7893 14.2921 14 13.7903 14H2.43796C1.93616 14 1.4549 13.7893 1.10007 13.4142C0.74524 13.0391 0.545898 12.5304 0.545898 12V4ZM2.91098 5C2.78553 5 2.66521 5.05268 2.57651 5.14645C2.4878 5.24021 2.43796 5.36739 2.43796 5.5V6.5C2.43796 6.63261 2.4878 6.75979 2.57651 6.85355C2.66521 6.94732 2.78553 7 2.91098 7H4.80304C4.92849 7 5.04881 6.94732 5.13751 6.85355C5.22622 6.75979 5.27606 6.63261 5.27606 6.5V5.5C5.27606 5.36739 5.22622 5.24021 5.13751 5.14645C5.04881 5.05268 4.92849 5 4.80304 5H2.91098ZM2.91098 8C2.78553 8 2.66521 8.05268 2.57651 8.14645C2.4878 8.24021 2.43796 8.36739 2.43796 8.5C2.43796 8.63261 2.4878 8.75979 2.57651 8.85355C2.66521 8.94732 2.78553 9 2.91098 9H7.64114C7.76659 9 7.8869 8.94732 7.97561 8.85355C8.06432 8.75979 8.11415 8.63261 8.11415 8.5C8.11415 8.36739 8.06432 8.24021 7.97561 8.14645C7.8869 8.05268 7.76659 8 7.64114 8H2.91098ZM2.91098 10C2.78553 10 2.66521 10.0527 2.57651 10.1464C2.4878 10.2402 2.43796 10.3674 2.43796 10.5C2.43796 10.6326 2.4878 10.7598 2.57651 10.8536C2.66521 10.9473 2.78553 11 2.91098 11H3.85701C3.98246 11 4.10277 10.9473 4.19148 10.8536C4.28019 10.7598 4.33003 10.6326 4.33003 10.5C4.33003 10.3674 4.28019 10.2402 4.19148 10.1464C4.10277 10.0527 3.98246 10 3.85701 10H2.91098ZM5.74907 10C5.62362 10 5.50331 10.0527 5.4146 10.1464C5.32589 10.2402 5.27606 10.3674 5.27606 10.5C5.27606 10.6326 5.32589 10.7598 5.4146 10.8536C5.50331 10.9473 5.62362 11 5.74907 11H6.6951C6.82056 11 6.94087 10.9473 7.02958 10.8536C7.11829 10.7598 7.16812 10.6326 7.16812 10.5C7.16812 10.3674 7.11829 10.2402 7.02958 10.1464C6.94087 10.0527 6.82056 10 6.6951 10H5.74907ZM8.58717 10C8.46172 10 8.3414 10.0527 8.2527 10.1464C8.16399 10.2402 8.11415 10.3674 8.11415 10.5C8.11415 10.6326 8.16399 10.7598 8.2527 10.8536C8.3414 10.9473 8.46172 11 8.58717 11H9.5332C9.65865 11 9.77896 10.9473 9.86767 10.8536C9.95638 10.7598 10.0062 10.6326 10.0062 10.5C10.0062 10.3674 9.95638 10.2402 9.86767 10.1464C9.77896 10.0527 9.65865 10 9.5332 10H8.58717ZM11.4253 10C11.2998 10 11.1795 10.0527 11.0908 10.1464C11.0021 10.2402 10.9522 10.3674 10.9522 10.5C10.9522 10.6326 11.0021 10.7598 11.0908 10.8536C11.1795 10.9473 11.2998 11 11.4253 11H12.3713C12.4967 11 12.6171 10.9473 12.7058 10.8536C12.7945 10.7598 12.8443 10.6326 12.8443 10.5C12.8443 10.3674 12.7945 10.2402 12.7058 10.1464C12.6171 10.0527 12.4967 10 12.3713 10H11.4253Z" fill="white"/>
</g>
<defs>
<clipPath id="clip0_188_67">
<rect width="15.1365" height="16" fill="white" transform="translate(0.545898)"/>
</clipPath>
</defs>
</svg>
