<?xml version="1.0" encoding="utf-8"?>
<!-- Svg Vector Icons : http://www.onlinewebfonts.com/icon -->
<!DOCTYPE svg PUBLIC "-//W3C//DTD SVG 1.1//EN" "http://www.w3.org/Graphics/SVG/1.1/DTD/svg11.dtd">
<svg version="1.1" xmlns="http://www.w3.org/2000/svg" xmlns:xlink="http://www.w3.org/1999/xlink" x="0px" y="0px" viewBox="0 0 1000 1000" enable-background="new 0 0 1000 1000" xml:space="preserve">
<metadata> Svg Vector Icons : http://www.onlinewebfonts.com/icon </metadata>
<g><path d="M279.5,720.5v-196H304v196H279.5z M328.5,524.5H402v196h-73.5V524.5z M426.5,524.5H451v196h-24.5V524.5z M475.5,720.5v-196H500v196H475.5z M524.5,524.5h49v196h-49V524.5z M598,524.5h24.5v196H598V524.5z M647,524.5h24.5v196H647V524.5z M696,524.5h24.5v196H696V524.5z M243,393.2c4.7,0,7.1,2.3,7.1,7c0,5.8-7,12.9-20.9,21.4c-14,8.5-27.5,12.7-40.5,12.7c-11.5,0-22.1-3.8-31.8-11.4c-9.7-7.6-14.5-18.6-14.5-33.2c0-14.8,5.1-31.2,15.3-49.2c10.2-18,22.8-32.7,37.9-44.1c15.1-11.3,29.8-17,44.1-17c8.5,0,15.4,2.5,20.5,7.6c5.1,5.1,7.7,11,7.7,17.8l-1.7,15.8c-1.2,3.2-3.6,6-7.4,8.2l-9.2,3.4l-6.4-2.6c-1.8-1.7-2.7-4.1-2.7-7.1l2-9l1.9-9.9c0-4.4-1.5-6.7-4.5-6.7c-9.1,0-19.4,5-30.7,14.9c-11.3,9.9-21.1,22.3-29.1,37c-8.1,14.7-12.1,27.7-12.1,39c0,7.5,2.1,13.8,6.3,19c4.2,5.2,10.3,7.7,18.3,7.7l17.9-4c7.2-2.6,13.9-6.2,20-10.7C236.5,395.5,240.7,393.2,243,393.2z M371.9,377.6c-4.3,14.8-12.6,27.4-24.8,37.5c-12.2,10.2-24.3,15.3-36.5,15.3c-9.6,0-17.5-3.4-23.7-10.3c-6.2-6.9-9.4-15.3-9.4-25.4c0-16.4,5.7-32.5,17.1-48.3c11.4-15.9,25.3-23.8,41.6-23.8c11.1,0,20.1,4,27,12c6.9,8,10.3,17.6,10.3,28.7L371.9,377.6L371.9,377.6z M320.9,347.1c-4.6,4-9,10.3-13.4,19.1c-4.3,8.7-6.5,17.5-6.5,26.3c0,5.3,1,9.7,3,13.2c2,3.5,4.6,5.2,7.8,5.2c8.1,0,16.4-4.7,25.1-14.1c8.7-9.4,13-20,13-31.8c0-6.6-1.4-12-4.2-16.3c-2.8-4.3-6.8-6.4-11.8-6.4C329.2,342.2,324.9,343.9,320.9,347.1L320.9,347.1z M457.9,391.5c-6,11.3-12.9,20.3-20.8,27c-7.9,6.7-15.9,10-24,10c-4.8,0-9.6-2.6-14.5-7.7c-4.9-5.1-7.3-13-7.3-23.6c0-7.5,1.7-18.9,5.2-34.1l4.6-28.6c2.5-5.3,6.4-8,11.7-8c3.6,0,6.5,1.2,8.6,3.6l3.2,7.3l-4,19l-5,20.7l-2.7,17.2c0,8.3,1.7,12.5,5.2,12.5c5.5,0,12.8-5.4,22.1-16.2c9.3-10.8,15.3-21.9,18.2-33.2l7.7-21.8c2.2-3.4,5.4-5.2,9.5-5.2c6.6,0,10,3.7,10,11.2l-1.7,6.6c-4.1,11.4-6.1,24.3-6.1,38.6c0,16.7,2.8,26.8,8.4,30l2.8,4c0,2.3-1.6,4.5-4.9,6.5l-9.4,3.1c-5.3,0-9.4-3.5-12.2-10.6C459.3,412.8,457.9,403.4,457.9,391.5z M531.5,419.5l-3.2,20.2l-4.6,37.3c-0.8,6.1-2.2,10.3-4.4,12.6c-2.2,2.3-4.9,3.5-8.1,3.5c-2.9,0-5.6-1.1-8.2-3.2c-2.6-2.1-3.9-4.5-3.9-7.1l2.4-17.9c9.3-38,14.4-77.5,15.3-118.3v-1.9l0.7-17.1l4.2-7.5c2.3-2.2,5.6-3.3,9.8-3.3c7.1,0,10.7,5.3,10.7,15.9l-2.8,22l-1.1,6.6c7.3-12.2,15.9-22.3,25.9-30.4c10-8.1,18.9-12.1,26.8-12.1c7.1,0,13.2,2.6,18.2,7.7c5,5.2,7.5,11.7,7.5,19.5c0,20.9-7.9,39.8-23.8,56.9c-15.9,17.1-31.6,25.6-47.1,25.6C538.3,428.5,533.6,425.5,531.5,419.5z M587.3,340.3c-7.8,0-18,7.8-30.4,23.3c-12.5,15.5-18.7,27.7-18.7,36.6c0,2.3,1.1,4.3,3.3,6.1l7.7,2.7c8.1,0,17.5-6.5,28-19.5c10.5-13,15.8-25.6,15.8-37.7l-1.8-8.7L587.3,340.3z M726.7,377.6c-4.3,14.8-12.6,27.4-24.8,37.5c-12.2,10.2-24.3,15.3-36.5,15.3c-9.6,0-17.5-3.4-23.8-10.3c-6.2-6.9-9.4-15.3-9.4-25.4c0-16.4,5.7-32.5,17.2-48.3c11.4-15.9,25.3-23.8,41.6-23.8c11.1,0,20.1,4,27,12c6.9,8,10.3,17.6,10.3,28.7L726.7,377.6L726.7,377.6z M675.7,347.1c-4.6,4-9,10.3-13.4,19.1c-4.3,8.7-6.5,17.5-6.5,26.3c0,5.3,1,9.7,3,13.2c2,3.5,4.6,5.2,7.8,5.2c8.1,0,16.4-4.7,25.1-14.1c8.7-9.4,13-20,13-31.8c0-6.6-1.4-12-4.2-16.3c-2.8-4.3-6.8-6.4-11.8-6.4C683.9,342.2,679.6,343.9,675.7,347.1L675.7,347.1z M825.5,412.9c-3.2-5.8-5.5-16.5-7-32.3c-1.4-16.4-4.5-24.6-9.4-24.6c-4.6,0-12.5,8.6-23.8,25.8c-11.3,17.2-18.2,29.9-20.9,38.1l-3.2,6.1l-4.6,2.4c-9.7,0-14.5-4.5-14.5-13.4l2.5-20.7c2.2-13.9,3.3-30.9,3.3-51c0-3,1.3-6.3,3.9-9.7c2.6-3.4,5.3-5.2,8.2-5.2c3.7,0,6.5,0.9,8.5,2.8c2,1.9,2.9,6.8,2.9,14.8l-5.4,35.4c14.2-32.7,30-49.1,47.4-49.1c15.1,0,24,11.6,26.6,34.9c2.5,23.7,5.4,35.6,8.7,35.6l5-0.9l5.4-1.1c3,0,4.5,1.8,4.5,5.5c0,3.3-2.1,6.8-6.2,10.6c-4.1,3.7-9.3,5.6-15.5,5.6c-7.2,0-12.4-3.2-15.5-9.7H825.5z M108,157h784c54.1,0,98,43.9,98,98v490c0,54.1-43.9,98-98,98H108c-54.1,0-98-43.9-98-98V255C10,200.9,53.9,157,108,157z M892,230.5H108c-13.5,0-24.5,11-24.5,24.5v490c0,13.5,11,24.5,24.5,24.5h784c13.5,0,24.5-11,24.5-24.5V255C916.5,241.5,905.5,230.5,892,230.5z"/></g>
</svg>