<svg width="17" height="21" viewBox="0 0 17 21" fill="none" xmlns="http://www.w3.org/2000/svg">
<path d="M14.9688 8.34375C14.9237 6.51669 14.291 4.99318 13.0705 3.77322C11.8501 2.55326 10.3266 1.92052 8.5 1.875C6.67294 1.92004 5.14943 2.55278 3.92947 3.77322C2.70951 4.99366 2.07677 6.51717 2.03125 8.34375C2.03125 9.67631 2.56648 11.1998 3.63694 12.9143C4.7074 14.6287 6.32842 16.5267 8.5 18.6082C10.6711 16.5267 12.2921 14.6287 13.3631 12.9143C14.434 11.1998 14.9692 9.67631 14.9688 8.34375ZM8.5 20.5625C3.22917 15.7708 0.59375 11.6979 0.59375 8.34375C0.653646 6.09742 1.42486 4.23322 2.90741 2.75116C4.38995 1.26909 6.25415 0.497875 8.5 0.4375C10.7463 0.497396 12.6105 1.26861 14.0926 2.75116C15.5747 4.2337 16.3459 6.0979 16.4062 8.34375C16.4062 11.6979 13.7708 15.7708 8.5 20.5625ZM8.5 10.5C9.11381 10.4851 9.62293 10.2755 10.0273 9.87109C10.4318 9.46668 10.634 8.95756 10.634 8.34375C10.634 7.72994 10.4318 7.22082 10.0273 6.81641C9.62293 6.41199 9.11381 6.20978 8.5 6.20978C7.88619 6.20978 7.37707 6.41199 6.97266 6.81641C6.56824 7.22082 6.36603 7.72994 6.36603 8.34375C6.36603 8.95756 6.56824 9.46668 6.97266 9.87109C7.37707 10.2755 7.88619 10.4851 8.5 10.5ZM8.5 11.9375C7.48177 11.9073 6.6358 11.5554 5.96209 10.8817C5.28839 10.2079 4.93644 9.36198 4.90625 8.34375C4.93644 7.32552 5.28839 6.47955 5.96209 5.80584C6.6358 5.13214 7.48177 4.78019 8.5 4.75C9.51823 4.78019 10.3642 5.13214 11.0379 5.80584C11.7116 6.47955 12.0636 7.32552 12.0938 8.34375C12.0636 9.36198 11.7116 10.2079 11.0379 10.8817C10.3642 11.5554 9.51823 11.9073 8.5 11.9375Z" fill="#FFA404"/>
</svg>
