<svg width="20" height="20" viewBox="0 0 20 20" fill="none" xmlns="http://www.w3.org/2000/svg">
<path d="M10.7374 2.665C10.7164 2.6545 8.63591 1.6665 6.98041 1.5405C5.24041 1.405 3.49691 2.3285 3.47891 2.3385L3.24341 1.897C3.31941 1.8565 5.13341 0.900996 7.01841 1.0415C8.76791 1.1755 10.8644 2.172 10.9529 2.214L10.7374 2.665Z" fill="#302F3C" fill-opacity="0.4"/>
<path d="M8.97852 3.64851L8.75952 3.19901L10.4745 2.36301L9.36652 0.840509L9.77102 0.546509L11.2295 2.55051L8.97852 3.64851Z" fill="#302F3C" fill-opacity="0.4"/>
<path d="M1.51164 4.95698L1.29614 4.50598C1.38464 4.46398 3.48114 3.46748 5.23114 3.33348C7.11014 3.19648 8.92964 4.14848 9.00564 4.18898L8.77014 4.63048C8.75264 4.62098 7.00364 3.69698 5.26914 3.83248C3.61364 3.95848 1.53264 4.94698 1.51164 4.95698Z" fill="#302F3C" fill-opacity="0.4"/>
<path d="M3.27103 5.9405L1.01953 4.8425L2.47803 2.8385L2.88253 3.1325L1.77453 4.655L3.48953 5.491L3.27103 5.9405Z" fill="#302F3C" fill-opacity="0.4"/>
<path d="M12.669 19.719C12.0325 19.719 11.387 19.65 10.803 19.52C9.80651 19.298 7.71001 17.6985 7.26651 17.239C6.86551 16.8235 5.79151 15.2285 5.63401 13.931C5.56501 13.366 5.99851 11.6825 6.52901 11.0835C6.63351 10.966 6.74301 10.887 6.85501 10.848C6.83248 10.7965 6.80964 10.7452 6.78651 10.694C6.44151 9.94298 5.93051 9.07548 5.47951 8.30948C4.71601 7.01248 4.43151 6.49448 4.47951 6.19948C4.56001 5.69948 4.97001 5.12248 5.51601 5.02148L5.61251 5.00198C5.75327 4.96805 5.89725 4.94928 6.04201 4.94598C6.51851 4.94598 6.95501 5.21798 7.41651 5.80148C7.81601 6.30698 8.46301 7.70248 9.00751 8.96498C8.98251 8.64698 8.99201 8.38148 9.05901 8.22648C9.32901 7.59998 10.082 7.35348 10.3115 7.33898L10.368 7.33748C10.5135 7.33748 11.258 7.37398 11.603 8.09798C11.658 8.21398 11.7105 8.33898 11.759 8.46548C11.821 8.25048 11.909 8.06298 12.0345 7.95598C12.4205 7.62798 12.949 7.45798 13.3085 7.55898C13.695 7.66748 14.0205 8.07648 14.138 8.60298C14.1885 8.48898 14.2495 8.39648 14.3215 8.34248C14.671 8.08048 15.279 8.05248 15.664 8.31948C16.134 8.64548 17.215 10.5985 17.405 12.3065C17.5605 13.7105 17.736 16.2195 17.1565 17.2535C16.5545 18.326 15.323 19.159 14.4335 19.4785C14.0005 19.633 13.374 19.719 12.669 19.719ZM7.03401 11.329C6.70201 11.362 6.05151 13.222 6.13001 13.8695C6.27101 15.0335 7.27051 16.5225 7.62651 16.8915C8.05001 17.3305 10.055 18.8405 10.911 19.031C11.4605 19.1535 12.0675 19.2185 12.6685 19.2185C13.308 19.2185 13.889 19.141 14.263 19.006C14.9355 18.7645 16.1435 18.033 16.719 17.0065C17.093 16.341 17.1615 14.647 16.907 12.3605C16.7265 10.7315 15.673 8.93348 15.3785 8.72848C15.142 8.56498 14.748 8.64498 14.6205 8.74098C14.55 8.82148 14.4455 9.29248 14.405 9.74098L14.2795 11.1245L13.915 9.78398C13.915 9.78398 13.753 9.18898 13.651 8.71748C13.564 8.31898 13.342 8.08598 13.1725 8.03898C12.986 7.98598 12.6115 8.11948 12.358 8.33548C12.22 8.45298 12.1175 9.13198 12.113 9.66698L12.094 11.7455L11.6195 9.72148C11.6175 9.71248 11.419 8.86998 11.1515 8.31148C10.9355 7.85848 10.4605 7.83548 10.368 7.83548C10.2225 7.84548 9.69001 8.02448 9.51801 8.42298C9.39801 8.70248 9.67001 10.161 9.99051 11.3515L9.51651 11.5075C9.50001 11.464 7.75751 7.03648 7.02501 6.10998C6.55401 5.51398 6.23901 5.44498 6.04301 5.44498C5.93301 5.44498 5.82701 5.46698 5.71551 5.49048L5.60801 5.51198C5.32701 5.56398 5.03151 5.92248 4.97301 6.27898C4.97751 6.46998 5.49501 7.34898 5.91101 8.05548C6.36751 8.83148 6.88551 9.71098 7.24101 10.4845C7.33151 10.681 7.41551 10.8855 7.49301 11.0945L7.49401 11.098C8.03651 11.8455 8.30651 14.304 8.33601 14.5865L7.83951 14.644C7.83751 14.6265 7.60851 12.8755 7.05351 11.3475C7.04744 11.3409 7.04092 11.3347 7.03401 11.329Z" fill="#302F3C" fill-opacity="0.4"/>
</svg>
