<svg width="25" height="29" viewBox="0 0 25 29" fill="none" xmlns="http://www.w3.org/2000/svg">
<path d="M20.6362 2.83973C18.3847 1.01765 15.6681 0.108478 12.4871 0.111656C9.30594 0.114834 6.59059 1.02962 4.34083 2.85602C2.09115 4.68235 0.966851 6.88465 0.968176 9.46292C0.968856 10.7886 1.21695 11.8767 1.71239 12.7275L9.93488 26.8388C10.1602 27.2395 10.5094 27.5554 10.9821 27.7858C11.4549 28.0164 11.9613 28.1316 12.5017 28.1311C13.0418 28.1305 13.5483 28.0143 14.0208 27.7827C14.4934 27.5514 14.8493 27.2348 15.0893 26.8336L23.2742 12.706C23.769 11.8542 24.0162 10.7655 24.0155 9.4399C24.0145 6.86162 22.8882 4.66182 20.6362 2.83973ZM16.5672 12.7491C15.4425 13.6621 14.0849 14.1196 12.4943 14.1212C10.9037 14.1228 9.54562 13.668 8.41964 12.7573C7.29382 11.8462 6.73047 10.7463 6.7298 9.4571C6.72914 8.16806 7.29137 7.06681 8.41625 6.15375C9.54129 5.24055 10.8991 4.78306 12.4895 4.78147C14.0801 4.77988 15.4382 5.23466 16.5639 6.1456C17.6896 7.05636 18.253 8.15655 18.2536 9.44559C18.2543 10.7346 17.6921 11.8356 16.5672 12.7491Z" fill="#FFA404"/>
</svg>
